<mxfile host="app.diagrams.net" agent="Mozilla/5.0 (Windows NT 10.0; Win64; x64) AppleWebKit/537.36 (KHTML, like Gecko) Chrome/138.0.0.0 Safari/537.36" version="28.0.5">
  <diagram name="Page-1" id="TLSxbTAF1A14z6ihthi7">
    <mxGraphModel dx="1042" dy="527" grid="1" gridSize="10" guides="1" tooltips="1" connect="1" arrows="1" fold="1" page="1" pageScale="1" pageWidth="1000" pageHeight="1000" math="0" shadow="0">
      <root>
        <mxCell id="0" />
        <mxCell id="1" parent="0" />
        <mxCell id="7Eo2FZw0FCb50S-rKe-6-1" value="" style="rounded=0;whiteSpace=wrap;html=1;gradientColor=none;fillColor=light-dark(#F5F0DC, #fbf0d4);gradientDirection=south;strokeWidth=5;strokeColor=light-dark(#66432A,#66432A);" parent="1" vertex="1">
          <mxGeometry x="203" y="103" width="595" height="795" as="geometry" />
        </mxCell>
        <mxCell id="7Eo2FZw0FCb50S-rKe-6-3" value="&lt;font style=&quot;font-size: 35px;&quot;&gt;&lt;font style=&quot;&quot;&gt;Three&amp;nbsp;&lt;/font&gt;&lt;span style=&quot;background-color: transparent;&quot;&gt;Men’s&amp;nbsp;&lt;/span&gt;&lt;/font&gt;&lt;span style=&quot;font-size: 35px; background-color: transparent;&quot;&gt;Morris&lt;/span&gt;" style="rounded=1;html=1;fillColor=light-dark(#654229,#654229);strokeColor=light-dark(#D4671D,#D4671D);strokeWidth=4;fontColor=light-dark(#FBF0D4,#FBF0D4);fontFamily=Verdana;labelPosition=center;verticalLabelPosition=middle;align=center;verticalAlign=middle;whiteSpace=wrap;arcSize=50;" parent="1" vertex="1">
          <mxGeometry x="258" y="135" width="485" height="85" as="geometry" />
        </mxCell>
        <mxCell id="h-g46ZlZmMxYvaO0gHXE-3" value="&lt;font face=&quot;Lucida Console&quot;&gt;&lt;span style=&quot;font-size: 40px;&quot;&gt;Start&lt;/span&gt;&lt;/font&gt;" style="rounded=1;whiteSpace=wrap;html=1;fontSize=35;fillColor=light-dark(#D4671D,#D4671D);arcSize=50;strokeWidth=3;strokeColor=light-dark(#654229,#654229);" parent="1" vertex="1">
          <mxGeometry x="363" y="770" width="275" height="100" as="geometry" />
        </mxCell>
        <mxCell id="Khn2eF95biebbttWJFTb-4" value="&lt;font style=&quot;font-size: 30px; color: light-dark(rgb(101, 66, 41), rgb(101, 66, 41));&quot; face=&quot;Courier New&quot;&gt;&lt;b style=&quot;&quot;&gt;&amp;nbsp;About This Project&lt;/b&gt;&lt;/font&gt;" style="text;html=1;align=center;verticalAlign=middle;whiteSpace=wrap;rounded=0;" parent="1" vertex="1">
          <mxGeometry x="305" y="235" width="390" height="50" as="geometry" />
        </mxCell>
        <mxCell id="Khn2eF95biebbttWJFTb-6" value="" style="endArrow=none;html=1;rounded=1;strokeWidth=6;curved=0;strokeColor=light-dark(#D4671D,#D4671D);" parent="1" edge="1">
          <mxGeometry width="50" height="50" relative="1" as="geometry">
            <mxPoint x="670" y="285" as="sourcePoint" />
            <mxPoint x="346" y="285" as="targetPoint" />
          </mxGeometry>
        </mxCell>
        <mxCell id="Khn2eF95biebbttWJFTb-9" value="&lt;p style=&quot;&quot; data-end=&quot;1085&quot; data-start=&quot;967&quot;&gt;&lt;/p&gt;&lt;font style=&quot;&quot;&gt;&lt;div style=&quot;text-align: justify;&quot;&gt;&lt;font style=&quot;color: light-dark(rgb(101, 66, 41), rgb(101, 66, 41)); font-size: 18px;&quot;&gt;This game was created as part of a university project, combining classic board game logic with modern graphics programming.&lt;/font&gt;&lt;/div&gt;&lt;/font&gt;&lt;p&gt;&lt;/p&gt;&lt;p data-end=&quot;1108&quot; data-start=&quot;1087&quot;&gt;&lt;/p&gt;" style="text;html=1;align=left;verticalAlign=middle;whiteSpace=wrap;rounded=0;" parent="1" vertex="1">
          <mxGeometry x="230" y="370" width="540" height="50" as="geometry" />
        </mxCell>
        <mxCell id="Khn2eF95biebbttWJFTb-10" value="&lt;font style=&quot;color: light-dark(rgb(101, 66, 41), rgb(101, 66, 41)); font-size: 19px;&quot;&gt;&lt;b style=&quot;&quot;&gt;Unique Feature – Prime Number Logic&lt;/b&gt;&lt;/font&gt;" style="text;html=1;align=center;verticalAlign=middle;whiteSpace=wrap;rounded=0;" parent="1" vertex="1">
          <mxGeometry x="325.5" y="415" width="350" height="50" as="geometry" />
        </mxCell>
        <mxCell id="Khn2eF95biebbttWJFTb-13" value="&lt;p style=&quot;&quot; data-end=&quot;1085&quot; data-start=&quot;967&quot;&gt;&lt;/p&gt;&lt;font style=&quot;&quot;&gt;&lt;div style=&quot;text-align: justify;&quot;&gt;&lt;font style=&quot;font-size: 17px; color: light-dark(rgb(101, 66, 41), rgb(101, 66, 41));&quot;&gt;Each board slot has a unique prime number. To detect a win, the game multiplies a player’s occupied slot values. If the result is divisible by any winning combination’s product, it&#39;s a win. A fast and elegant way to check for victory using math.&lt;/font&gt;&lt;/div&gt;&lt;/font&gt;&lt;p&gt;&lt;/p&gt;&lt;p data-end=&quot;1108&quot; data-start=&quot;1087&quot;&gt;&lt;/p&gt;" style="text;html=1;align=left;verticalAlign=middle;whiteSpace=wrap;rounded=0;" parent="1" vertex="1">
          <mxGeometry x="230" y="455" width="540" height="80" as="geometry" />
        </mxCell>
        <mxCell id="HQDI_JxLUjrjbNLDfQRk-4" value="&lt;p style=&quot;&quot; data-end=&quot;1085&quot; data-start=&quot;967&quot;&gt;&lt;font face=&quot;Verdana&quot; style=&quot;color: light-dark(rgb(101, 66, 41), rgb(101, 66, 41)); font-size: 21px;&quot;&gt;Developed using &lt;b&gt;C++&lt;/b&gt; and &lt;b&gt;SFML&lt;/b&gt;&amp;nbsp;by &lt;b&gt;Sasivarnasarma&lt;/b&gt;&lt;/font&gt;&lt;/p&gt;&lt;p data-end=&quot;1108&quot; data-start=&quot;1087&quot;&gt;&lt;/p&gt;" style="text;html=1;align=center;verticalAlign=middle;whiteSpace=wrap;rounded=0;" parent="1" vertex="1">
          <mxGeometry x="340" y="295" width="320" height="80" as="geometry" />
        </mxCell>
        <mxCell id="HQDI_JxLUjrjbNLDfQRk-5" value="&lt;font style=&quot;color: light-dark(rgb(101, 66, 41), rgb(101, 66, 41)); font-size: 25px;&quot;&gt;&lt;b style=&quot;&quot;&gt;Open Source&lt;/b&gt;&lt;/font&gt;" style="text;html=1;align=center;verticalAlign=middle;whiteSpace=wrap;rounded=0;" parent="1" vertex="1">
          <mxGeometry x="420" y="655" width="160" height="50" as="geometry" />
        </mxCell>
        <mxCell id="HQDI_JxLUjrjbNLDfQRk-6" value="&lt;p style=&quot;&quot; data-end=&quot;1085&quot; data-start=&quot;967&quot;&gt;&lt;/p&gt;&lt;font style=&quot;font-size: 17px;&quot;&gt;&lt;div style=&quot;&quot;&gt;&lt;font style=&quot;color: light-dark(rgb(101, 66, 41), rgb(101, 66, 41));&quot;&gt;The full source code is available on &lt;b style=&quot;&quot;&gt;GitHub&lt;/b&gt;:&lt;/font&gt;&lt;/div&gt;&lt;div style=&quot;&quot;&gt;&lt;span style=&quot;background-color: transparent;&quot;&gt;&lt;font style=&quot;color: light-dark(rgb(101, 66, 41), rgb(101, 66, 41));&quot;&gt;Don&#39;t forget to give a ⭐ if you like this project&lt;/font&gt;&lt;font style=&quot;color: light-dark(rgb(101, 66, 41), rgb(101, 66, 41));&quot;&gt;!&lt;/font&gt;&lt;/span&gt;&lt;/div&gt;&lt;div style=&quot;&quot;&gt;&lt;span style=&quot;color: light-dark(rgb(101, 66, 41), rgb(101, 66, 41)); background-color: transparent;&quot;&gt;https://github.com/Sasivarnasarma/ThreeMensMorris&lt;/span&gt;&lt;/div&gt;&lt;/font&gt;&lt;p&gt;&lt;/p&gt;&lt;p data-end=&quot;1108&quot; data-start=&quot;1087&quot;&gt;&lt;/p&gt;" style="text;html=1;align=left;verticalAlign=middle;whiteSpace=wrap;rounded=0;" parent="1" vertex="1">
          <mxGeometry x="230" y="697" width="440" height="60" as="geometry" />
        </mxCell>
        <mxCell id="HQDI_JxLUjrjbNLDfQRk-7" value="" style="shape=image;imageAspect=0;aspect=fixed;verticalLabelPosition=bottom;verticalAlign=top;image=data:image/png,iVBORw0KGgoAAAANSUhEUgAABHsAAAR7CAIAAACfMz+5AAAABmJLR0QA/wD/AP+gvaeTAAAgAElEQVR4nOzde2BU9Zn/8TOTEG6ZoAgkISDIJUAuBGKC4g2VYrEqpthqdw3Y27Zbatu1XXepbdl2e7Hd3na7ru3udssl5betglALttaCdy2XYCSJmABGQBJCADGThFzImd8futrCASZDnu/3PGfer/8qc57vp8+cczLPzJkzoZ7jNQ4AAAAAQEDYdgAAAAAACCwmLgAAAACQwsQFAAAAAFKYuAAAAABAChMXAAAAAEhh4gIAAAAAKUxcAAAAACCFiQsAAAAApDBxAQAAAIAUJi4AAAAAkMLEBQAAAABSmLgAAAAAQAoTFwAAAABIYeICAAAAAClMXAAAAAAghYkLAAAAAKQwcQEAAACAFCYuAAAAAJDCxAUAAAAAUpi4AAAAAEAKExcAAAAASGHiAgAAAAApTFwAAAAAIIWJCwAAAACkMHEBAAAAgBQmLgAAAACQwsQFAAAAAFKYuAAAAABAChMXAAAAAEhh4gIAAAAAKUxcAAAAACCFiQsAAAAApDBxAQAAAIAUJi4AAAAAkMLEBQAAAABSmLgAAAAAQAoTFwAAAABIYeICAAAAAClMXAAAAAAghYkLAAAAAKQwcQEAAACAFCYuAAAAAJDCxAUAAAAAUpi4AAAAAEAKExcAAAAASGHiAgAAAAApTFwAAAAAIIWJCwAAAACkMHEBAAAAgBQmLgAAAACQwsQFAAAAAFKYuAAAAABAChMXAAAAAEhh4gIAAAAAKUxcAAAAACCFiQsAAAAApDBxAQAAAIAUJi4AAAAAkMLEBQAAAABSmLgAAAAAQAoTFwAAAABISbUdIHFLFn7YdgT0zeAhQ0LhUOqAAUPTI0MjkfRI+rDhw4ePHHlR5qgRI0dmjskZOGiQ7YwAACAIurq6Dh88eKT58LGWw0cOH2k9dqwtGm2PtrW3RXu6u51YrKO9w3ZG9M2DjzxsO0KCFE9cUOdExzunttY3j5/+r6FQ6KLMUWMvuWTMuHETpk4ZnzuZAQwAAMSpu7v79d27X9tV90ZDw4HX9x051ByLubZDAY7DxAX/iMViRw41HznU/NKLf3IcJ5wSHnPJJVMKCvIvnTlxytSU1BTbAQEAgL+4ve5r9XU1lS/VV1cfaGjoPdlrOxHggYkLPuX2uvv37N2/Z+8T638zeMiQaTOKiq+YXVhy6YC0NNvRAACATT3d3bUvVe147vlXqqq4OBD+x8QFBU50dOx44cUdL7w4cNCg6bNKL7/u2qnTC0Ih7vsCAEASicViu2trX9z85MtbtneeYNCCGkxc0KSrs3PbM89ue+bZEVmZV8173+zrr48My7AdCgAAyGqPRv/05JPP/mHT4cZG21mAPmPigkpHDjWvr1i94VcPXXrl7PcvXJg1Jsd2IkABt9etr62p3lZ5pLm5LRpNj0RGZmUVlBTn5heEU873Q2PR4vCkt+d6d0W9Pdfr6OHDmzZsePGJzV1dXbazAAkK9RyvsZ0hQZ+97fZYLGY7BewLhcIzL59100duzx471nYWwL+qtmxdX7Ha8+3hzJzRZYvKi2aV+rM4POntud5dUW/PlWp+4+DGhx7e8cKLrsstB+E4mu8Oz8SFgAiFwrOuufKmO+4YkZVpOwvgL67rPrJi1eYNG8/+sLm33PLBu8rD4b69Ty9aHJ709lzvrqi350odPXx446/XbH36aWYt/Dm9E1fKsqVLbGdI0MZfP2Q7AnwldnDf/mcef7wt2jphypQBAwbYzgP4xdrlK8/5StFxnIb6+q7O7rwZRf4pDk96e653V9Tbc3W6uroeX7vuFz/+t/179/LGOk5x0x23246QIMVvw4RCIdsR4Du9J3uf2vC7b9z9+Rc3P8mZGnAcp2rL1nheKb5t06OP7ty23SfF4Ulvz/Xuinp7rkssFtvy1DNf/+znNv76oZ7ubttxgP6keOLi9TTOpPX4WxUPPPijryxrPsgdjZDU3F53fcXqPm2yblWF2xvXZTyixeFJb8/17op6e67L0cOHH/jmt1f+5N/fOvam7SxA/1M8cfEZF85u76uv3v+lezf99rexGH/5kKTqqqv7eifl5oONu2trrReHJ70917sr6u25FrFY7OnHfvetv/vSrqqXbWcBpCieuIBz6u7uXrt81b/90zePHztmOwtgQU3ljgS2qo5vK9Hi8KS353p3Rb09VyH6VutP7//ur3/+i67OTttZAEFMXAi++pqa73zxXi6sRxJqaT6UyFZNcW0lWhye9PZc766ot+f+98pLVd++54s125lOEXxMXEgKba2t//ndf1lfsZorDJFU2qNtCWzVFm21Xhye9PZc766ot+d+FovF/rBu/X986/7W42/ZzgKYkGo7AGDI2+f3xv37P/p3XxgydIjtOIAJ6ZFIAltFMjKsF4cnvT3Xuyvq7blvdZ7oWPlv//Hy1q22gwDm8BkXkktN5Y7v/cM/cr0HksTIrKyEtsq2Xhye9PZc766ot+f+dPzNYz/+6tcZt5BsmLiQdFqaDv3wq1/bv2ev7SCAuIKS4gS2KiyNayvR4vCkt+d6d0W9Pfehxv37f/AP9x1oaLAdBDBN9cTF3eGRoNY3j/942dfrdlbbDgLIys0vyMwZ3adNssbkTMrLs14cnvT2XO+uqLfnfrPnlVd+8OWvHTt61HYQwALVExe/gIzEdXV2/se373956zbbQQBB4ZRw2aLyPm2ycPHicDiuPw2ixeFJb8/17op6e+4ru2tf+Y9v3d95osN2EMAO1WcEPuPCeTnZ0/M/P/gRV5Mj2Ipmlc695ZY4HzyvbEGfrqESLQ5Penuud1fU23OfqN3x0gPf/Da/uIVklrJs6RLbGRL02EMP244A9VzXrfrTlosnTBg1mm85I7CmFhV2dXY31NWd/WHzyhbcWn5nKNS3N7NEi8OT3p7r3RX19ty6vbte/dn93+vu7rYdBEFw0x23246QICYuJLuYG6vasnXStGkXjRppOwsgIhQK5c0oGjthwoGGhvZo9PQHZI3JWXz33XNunJ/AK0XR4vCkt+d6d0W9Pbfr9d17Hvjnb/HpFvqL3okr1HO8xnaGBH32tjv4NVv0l8FDhnzx2/+cM26c7SCAINd1d9fUVlfuaGk61BZtTY9kjMrOLigpnpyfd/5fOxEtDk96e653V9Tbc/MOvXHwh/d9tb0tkZ+QBjw9+IjWj1tUT1y3x2LcPAP95oLhw+/93ncuvOgi20EAANCtrbX1+1/+Cr9+if6ld+JS/X4MH9yjPx0/duxn9/9LV1eX7SAAACjW0939s+/+C+MW8C7VExfQzw689trqBx60nQIAAMV+9V8/f+3Vc9xlBEgqTFzAX9j+/AtPbfid7RQAAKj07ONPvLj5SdspAH9h4gJOtXbVSt6cAwCgr/bt2fvwL5bbTgH4DhMXcKrek72/+OGPO9rabQcBAECNrq6u5f/6k5M9PbaDAL7DxAV4OHb06BrepQMAIG4P/8/yw42NtlMAfpRqO0DiQiFH9Obw4yZNnFJYKLhAkulob+/p6uw80dXZeeJYy5Gjh5vdXl//nNqfnnq6oOTS4itm2w4CAIDf7dy2/YU/brKd4hzC4fDwUSMvGjly0ODBAwcNShs0aMjQobZDBUdddfW+PXttp/ApxROXtInTppUtutN2isA6efJkS1PToTcOvr57T1119YHXXvfh71n/+r9/PmV64dD0dNtBAADwrxMdHb/62X/bTuEhFArnjL94SkHhJVMmZ43JGZWdnTpggO1QgbV2RQUT15kwccGO1NTU7LFjs8eOnTn7csdx2tva6qtrXnrhxZe3be/p7rad7h3Rt1ofWblq0WeX2A4CAIB/rf/l6uNvHrOd4j2pqamFJZcWX3nFlMKC9IwM23EAJi74w9D09JmzL585+/KOtvbK555/fvPm/f54m+RPm5+67No5ufn5toMAAOBHe3e9+tzjf7Sd4h0548ddOXdu6TVXDY1EbGcB3qN44hL9EhdsGZI+9Or5N1w9/4a9r7664VcP1e2stpsnFov96r9+/tUf/TCcwm1mAAD4C7GY+/DyFX74XsDYSy55/20fnDn78lAoZDsLcCrFE5f0nTNg18SpU7/w9WW7a19Z/8vVDXX1FpMcOvDGC5s2XXXDPIsZAsntdetra6q3VR5pbm6LRtMjkZFZWQUlxbn5Bec/34oWhye9PdebXBRt8cSJ6xRbnn7G+jUpF0+ccGv5ndOKptuNAZxFqOd4je0MCbr7Q3e4ruB7KtfffNOHPv5RufqIUyzmPveHTb/55S872jtsZYgMy/jGg/8+aPAQWwGCp2rL1vUVqz3vI5yZM7psUXnRrFJ/FocnvT3Xm1wUbfHEiesUXV1d31jyeYvf4Bo0eMiCv/rINR94fzjs04k0qaxdUbHp0UdFl3jwkYdF68tJWbZU610BHntoTUzyQ65LcnPzZs6Qq484hUKhcZMmXn7ddceOHGk68IaVDN1dXakDBuQW8G2ufuC67trlK9csX9EejXo+oD0arXzu+c6OzqlFhX29OES0ODzp7bne5KJoiydOXJ42/3ZD1ZattlafXlry2a/dN7Vouq96ksx2Ve1sqKsTXeKmO24XrS+HieuMLpkyhYnLPwYOHlR8xeyLMjNfeanK7e01H+CNhtevvuGGAWlp5pcOmLXLV27esPGcD2uor+/q7M6bUeSf4vCkt+d6k4uiLZ44cZ2uq7PzFz/6cXdXl/mlwynhW8v/+vZPfmLwEK498REmrrPgQ1hocvm1c/7+O98ckZlpfukTHR3x/EXE2VVt2Rp/Gzc9+ujObdt9Uhye9PZcb3JRtMUTJy5Pm3+7MfpWq/l1Lxg+/J5//sYNHyzjoy0owsR1ZtyXw5fGTphw73e/c/HECeaXfmrjxs4TJ8yvGxhur7u+YnWfNlm3qsLtjevrmqLF4Ulvz/UmF0VbPHHi8tTT3f3kxsfMrzv64ov/8V++O3HaVPNLA+eDievMeO/EryLDMu755jfM35Woo73jxc1PGl40SOqqqz2/FH4WzQcbd9fWWi8OT3p7rje5KNriiROXpz89+XRbq+kPuMZNmnjPN78+bPiFhtcFzh8T15nxGZePDRw06G+//I+FJSWG1938242id8gMtprKHQlsVR3fVqLF4Ulvz/UmF0VbPHHiOl0sFtu80fRl9lOnT/+7b36D3zWGUponLj6CSm4D0tI++ff3TJo2zeSiRw8f9s819Oq0NB9KZKumuLYSLQ5PenuuN7ko2uKJE9fpdlW93PzGQZMrjps08dNf/oeBAweaXBToR5onLj6CSnoD0tI+85WlOePGmVz0hU2bTC4XJO3RtgS2aovGdeGKaHF40ttzvclF0RZPnLhO9/wTfzS53IiszM/c92XGLaimeeLiMy44zuAhQz7zlaUmr+p+ZUfVm0ePGlsuSNITuhokkpFhvTg86e253uSiaIsnTlynaD3+1s7t5q71SM/I+Pyyr2VcMMzYioAEzRMX4DiO4wwfMeKjX/h8KGRoZ3Zdd8uTT5tZK2BGZmUltFW29eLwpLfnepOLoi2eOHGdYstTT/eeNPSrmKFQaPHnPjsiy8JPwgD9S/PExVWF+D9TCgvef1uZseW2PPOMsbWCpKCkOIGtCkvj2kq0ODzp7bne5KJoiydOXKfY/uxzxta6/uabCy4N+A6GJKF54hK+qjDGvQpVufmOO4z9QEfzGwcPHXjDzFpBkptfkJkzuk+bZI3JmZSXZ704POntud7komiLJ05cf66l6dCBhgYza108ccKti/7azFqANM0Tl/BAxG+Z6xJOCS++e0nqgAFmlqt84UUzCwVJOCVctqi8T5ssXLw4HI7rNCVaHJ709lxvclG0xRMnrj9n7G9fOBwuX/KZ1NRUM8sB0jSfKPmMC39pZHb2dTfdaGatqi1bzCwUMEWzSufeckucD55XtqBPl9yIFocnvT3Xm1wUbfHEietdO7dtM7PQ1e+/Ycwl482sBRigeeISxmdcGt344Q9dMHy4gYUa9+0//uYxAwsFzwfvKp+7YME5HzavbMGt5Xf6qjg86e253uSiaIsnTlyO47RHo/v37DWw0NBI5OaP3G5gIcCYlGVLl9jOkKDHHl4j+jHU+MmT84tnytWHhNQBA4akp+/cauJNuJxxF4+55BIDCwVMKBTKm1E0dsKEAw0N7dHo6Q/IGpOz+O6759w4P4F3PUSLw5PenutNLoq2eOLE5TjOy1u3vfTinwwsdNtdiyfnB/z7gYG0q2pnQ12d6BI33aF1FOcCWQTNrGuu2firh44dOSK90K6qnZdfd530KkE1vbSk4NLi3TW11ZU7WpoOtUVb0yMZo7KzC0qKJ+fnnee3FESLw5PenutNLoq2eEryE9euqp0GVsm48ILZc/nbiqBh4jqjpHr3LkhSUlPet2DBQ7/4hfRCu2tekV4i2MLh8JTphVOmF6orDk96e643uSja4imZT1x7XjHxV+/6m28akJZmYCHAJPtvmfgWd87Q64ob5kaGZUivcvzNY0dbWqRXAQDAutbjbx1pbpZeZfCQIdfMv0F6FcA8Ji4EUFpa2qw51xpY6LVXZa9XBgDAD/a++qqBVUrnXD1o8BADCwGGKZ64uOoPZ3HZnKsNrLJv9x4DqwAAYNf+va8ZWGXW1Sb+dgPmKZ64uOoPZzHmkvGjL75YepWD+/ZJLwEAgHUHX39deokRWZmXTMmVXgWwQvHExWdcOLvSq6+UXqJx/37pJQAAsK5xn/jfu9JrrualHYKKexVacM9fL+rq7LSdoh+EQqHBQ4cMGjR4aCSSmTM6e8yYCdOmTpiS65O7DOUVz/zN6v8VXSL6Vmvrm8czLrxAdBUAACzqaO8w8Jsr+TNmSC8RpxMdHbtfeeXA3tcOvNbQ3NR0or39RHtHT3e37Vz95sf/+8uBAwfaTpFcFE9cXFVoXSwW62hr72hrP3bkyIGGhrf/44C0tGlF0y+77trCkktTU23uYGPGjxsaiXj+mmQ/amk+xMQFAAiwlqYm6SXS0tIunjRRepWz6+rsfHnrth3Pv/BK1csne3rshhHFZ4nmKZ644E893d07t23fuW17xgXD3nfrrVfPv8HW+yihUHjStKkvb90musqR5paJU6eKLgEAgEVHDx+WXmJi3jSL79J2dXa+sGnz42sfaT3+lq0MJoWZuIxTPHFJD+ixEJ+hnZfW4289snLVE+vXf/CuxZfNucbKGyqTC/KlJ65j8r9PAgCARcdaxC8pnJyfL72Ep1gs9vRjv9/40MPSV8QgySmeuKBC9K3WVT95YMuTT931hc9dMHy44dVz5G9XeFT+0nYAACw6dqRFeonR48ZKL3G6oy0tv3zgwbrqGvNL2xUOp9iOkHQU36tQWigm9ZlMEl4+W1ddc/+X7n11507D644cnS29RHtrq/QSAABY1CZ/rV3W6NHSS5xi57bt3/67LyXhuOU4jpN0r0Pt4zMuC5Lznh/Rt1of+Odv3/mZv5099zpji1540UUDBw7s6uqSW6KtNcjXIbi9bn1tTfW2yiPNzW3RaHokMjIrq6CkODe/IJySvO/X6G2LaHKKIxkk597SFm0TrR9OCV80KlN0iVP86cknf/ngz9xe1+Si/pGEb/1bx8R1RnLf40raHd113V8++NPu7q45N843s2IoFBqRnXXwdcHfKW5vC+zEVbVl6/qK1YcbG0/575s3bMzMGV22qLxoVqmVYHbpbYtocoojGSTt3tLeJjtxXTQqMyXV3HVuj699RPrHY3wuaV+IWpSybOkS2xkS9LuH18RcwQ+LxudOzp85U6Ly79c+0nvypERlFV55qWpEZuaY8ePMLFf14pYjkje3SElNfd+CW+TqW+G67trlK9csX3GmbxK3R6OVzz3f2dE5tagweU7cetsimpziSAZJvrc8se43He3tcvWzx465Yu71cvX/3PNP/PHhX6wws5Y/hULhm+74sETlXVU7G+rqJCq/66Y7bhetLyewn4D7WfDOxX0Si8VW//RnDXX1ZpYbNHiQaP2T3QH8yY5HVqzavGHjOR+26be/XbdqtYE8PqG3LaLJKY5kkOR7i/SPUw0cJPuX+l27Xt75v//132bW8q3kfhFqDRMXLDjZ0/M/P/iR9FUKbxs0eLBo/eD9SGLVlq3xvLB426ZHH925bbtoHp/Q2xbR5BRHMmBvOSl8Yc4gIxNX6/G3Vv7k35P2u1vvCoUZuSxg4oIdx44efejnvzCwUJrwZ1w9JwM1cbm97vqKvr1Bu25VReD/gOlti2hyiiMZsLc4jnOyR3biGij83ujbKh74j9Y3jxtYyOdC3KnQBsUTF3uMdtueedbAXVkHpKaJ1g/Yn9W66urTvxR+ds0HG3fX1grl8Qm9bRFNTnEkA/YWx3Fibq9o/dQB4jdy2/HCi7U7XpJeRQcuK7RB8cQVc5LxHusB8/D/LI/FhCcWzix9UVO5I4GtqhPaShG9bRFNTnEkA/YWx8Cv2gj/pe492dvXDyoDLMnvJmCL4okLAdC4f//LW4N2vbtqLc2HEtmqKZGtFNHbFtHkFEcyYG8JgBc3bxa9a7EuzFtWMHFZwd7+nsfXPmI7At7TntDPXLZFW/s9ia/obYtocoojGbC3BMDmjY/ZjuAjoTAv/i1Q3HTN3+Piesj37Nuz9+A+wV8oRp+kRyIJbBXJyOj3JL6ity2iySmOZMDeol19be2hA2/YTuEjoZDiF/960XTYt/XpZ21HwDtGZmUltFV2vyfxFb1tEU1OcSQD9hbttj/7vO0I/sJHXFbQdSv0fjonomrLVtsR8I6CkuIEtiosTWQrRfS2RTQ5xZEM2FtUi8Xcndu22U7hM9w5wwYmrjMTvPSPqwr/QktT05tHj9pOAcdxnNz8gsyc0X3aJGtMzqS8PKE8PqG3LaLJKY5kwN6iWuP+A/wG1ym4qtAKmm4F7y6cas8ru2xHgOM4TjglXLaovE+bLFy8OBz0axT0tkU0OcWRDNhbVGuoq7cdwXe4O7wVnBHgC4fe4FutflE0q3TuLbfE+eB5ZQsSu+RGHb1tEU1OcSQD9ha9Du7bbzuC7zBwWcHEBV843NhoOwLe88G7yucuWHDOh80rW3Br+Z0G8viE3raIJqc4kgF7i1Ith/hhtFPxGZcVqbYDAI7jOMeO8D0uHwmHw7d9dNHk/GnrVlU0H/QYhrPG5CxcvDjZ3sfV2xbR5BRHMmBvUer40WO2I/gOv8dlBRMXfKHrRKftCDjV9NKSgkuLd9fUVlfuaGk61BZtTY9kjMrOLigpnpyfl7TfUtDbFtHkFEcyYG9Rp+vECdsRfCcU4zMuC5i4LODj3NNxTvSncDg8ZXrhlOmFtoP4i962iCanOJJBcu4t0ndYlrvOrbu7S6iyXtyq0Aq6bkGMm8OfxnV7bUcAAACB4va6tiMAjsPEBQAAAABymLgAAAAAQIrmiUvt16HUBgcAAADQN5onLgAAAADwNyauM+L+FgAAAADOExMXAAAAAEhh4gIAAAAAKUxcAAAAACCFiQsAAAABFHP4Uj58gYkLAAAAAKSk2g4AAHiP2+vW19ZUb6s80tzcFo2mRyIjs7IKSopz8wvCKb5+j4zk5ulNLkq0LfRcQsjhh0oRcExcAOAXVVu2rq9Yfbix8ZT/vnnDxsyc0WWLyotmlVoJdk4kN09vclGibaHnABLD+zEWhHgrB8Bfcl13zS9W/Nf3vn/6i7m3NR9s/M/v/sva5atc1zWc7exIbp7e5KJE20LPAZwPJi4AsO+RFas2b9h4zodt+u1v161abSBP/Ehunt7kokTbQs8BnA8mLgCwrGrL1nhezL1t06OP7ty2XTRP/Ehunt7kokTbQs8BnCfFE1eIi/MA6Of2uusr+vam+LpVFW6v/SuXSG6e3uSiRNtCzwGcP8UTFwAEQF119Zm+GXImzQcbd9fWCuWJH8nN05tclGhb6DmA88fEdWYxfjUPgLiayh0JbFWd0Fb9i+Tm6U0uSrQt9Fw3XsvBH5i4AMCmluZDiWzVlMhW/Yvk5ulNLkq0LfQcwPlj4gIAm9qjbQls1RZt7fckfUVy8/QmFyXaFnoO4PwxcQGATemRSAJbRTIy+j1JX5HcPL3JRYm2hZ4DOH9MXABg08isrIS2yu73JH3PQHLT9CYXJdoWeg7g/DFx2cB97QH8n4KS4gS2KixNZKv+RXLz9CYXJdoWem4Cr4sQdExcAGBTbn5BZs7oPm2SNSZnUl6eUJ74kdw8vclFibaFngM4f0xcAGBTOCVctqi8T5ssXLw4HLZ/9ia5eXqTixJtCz13HCfGPdaB8xOoMwIAaFQ0q3TuLbfE+eB5ZQsSu8xJAsnN05tclGhb6DmA88TEBQD2ffCu8rkLFpzzYfPKFtxafqeBPPEjuXl6k4sSbQs9B3A+Um0HAAA44XD4to8umpw/bd2qiuaDjac/IGtMzsLFi3343jnJzdObXJRoW+i5UlwOCZ9g4gIAv5heWlJwafHumtrqyh0tTYfaoq3pkYxR2dkFJcWT8/P8/M0QkpunN7ko0bbQcwCJYeI6o5jDGyMATAuHw1OmF06ZXmg7SJ+R3Dy9yUWJtoWeA0gA78cAAAAAgBQmLgtCDr/0BwAAACQFJi4AAAAAkMLEBQAAAABSmLgAAAAAQAoTFwAAAKwJ8fV2BB0TFwAAAABIYeICAADAmcW0/kKp2uAIGiYuAAAAAJDCxAUAAAAAUpi4LAin0HYAAABZ3JPjdOFwiu0IySjVdoDESR9EMbGLf9PSBgpV1ivm2k4AL26vW19bU72t8khzc1s0mh6JjMzKKigpzs0vOP83DkSLi6It5tEWT7TFE0co3sX3uE43cPBg2xGSkeKJSy/29dPFQpwUfadqy9b1FasPNzae8t83b9iYmTO6bFF50axSfxYXRVvMoy2eaIsnjlDg7AYOHmQ7QjJKWbZ0ie0MCfr9mkd6e3vl6o+bNLHw0kslKldvr2xpOpWfsdcAACAASURBVCRRWa+BAwe+79YFEpV3Ve1sqKuTqPyum+64XbS+ea7rrl2+cs3yFe3RqOcD2qPRyuee7+zonFpUGOrjRRuixUXRFvNoiyfa4okjVM7vHl7ruoLXoozPnZxfPFOi8uOPrD95skeisl4Tp+YWXzFbojKvuM6CT8AtGJGZaTuC78hdw4kEPLJi1eYNG8/5sE2//e26Vat9VVwUbTGPtniiLZ44QoF4jMrJsR0hGTFxWTD2kvG2I/gOA5d/VG3ZGs8Li7dtevTRndu2+6S4KNpiHm3xRFs8cYQCccpi4rKBicuC8bmTbUfwHT7j8gm3111f0bc3aNetqnB747raRLS4KNpiHm3xRFs8cYTizHh1carJ+Xm2IyQjJi4LsseOGTb8Qtsp/CXGzQr9oa66+vQvhZ9d88HG3bW11ouLoi3m0RZPtMUTR6h6gl98C9p36s5TZs7oC4YPt50iGTFxWRAKhQtLSmyn8Bk+4/KHmsodCWxVHd9WosVF0RbzaIsn2uKJIxRnxquLv1B02WW2IyQpJi47Sq++ynYEf5G8BxL6oKU5kbtoxnnvTdHiomiLebTFE23xxBEKxGnWNbz+tIOJy47J+XnZY8faTuEjXFXoE+3RtgS2aou2Wi8uiraYR1s80RZPHKHSYoo/KeKqwveMz508+uKLbadIUkxc1lx/8wdsR/CRGB9y+UN6JJLAVpGMDOvFRdEW82iLJ9riiSMUZ6Z3Vux/719YZjtC8mLisuby664bkcUPc72DM6JPjMzKSmirbOvFRdEW82iLJ9riiSMUOKecceOml5baTpG8FE9c4r/pLnwvh5TUlA8uKhddQhHuDu8TBSXFCWxVWBrXVqLFRdEW82iLJ9riiSNUWohr8/T78Cc/pv2Vs2qaJ65wimj9kz0nRes7jjNz9uWJncoDiKPUH3LzCzJzRvdpk6wxOZPy4vpxD9HiomiLebTFE23xxBEqTfP3uOA4jnPZtdfk5udLr9Jzslu0fjhF8diiOHrqgFTR+l0nTojWf1v5kiUZF15gYCGf42zuE+GUcFkfP3pduHhxOBzXmUS0uCjaYh5t8URbPHGEAmcxfMSID3/84wYWkn7lPCB1gGh9UYrPCKmpshNXZ2enaP23ZVww7K7Pf0711N4vYi4Tl18UzSqde8stcT54XtmCPn1OK1pcFG0xj7Z4oi2eOEIBTwPS0j5575eGpA81sFZnh+wr59QBTFw2SPe9y8jE5TjOtKLpf/3pT5lZy7e4qNBXPnhX+dwFC875sHllC24tv9NXxUXRFvNoiyfa4okjFKdL8m+Jh0Lhu77wufGTJ5lZTvqVc2qa4olL9mMiUYOHys7rrcffEq3/565439zoW2/9ZvX/GlvRb/g9Ll8Jh8O3fXTR5Pxp61ZVNB9sPP0BWWNyFi5enNj7uKLFRdEW82iLJ9riiSMUpxO/V4SPhULhj/zNJ4pnX25sxehbsq+cBw8ZIlpflOKJKz2SLlr/6OHm3pO9Kamy9+d41/tvWzhs+IWrf/qfvSd7zazoN7FYLJnPjD40vbSk4NLi3TW11ZU7WpoOtUVb0yMZo7KzC0qKJ+fnnee3FESLi6It5tEWT7TFE0eoRqGY1F//pP2MKxwO37nkb2dff52xFWOxWEtTk+gS6RHFP3OneOIamtCPEsbP7XWPNDf39Q5F5+Py664bGslY/uOfdJ7oMLaofzBx+VA4HJ4yvXDK9EJ1xUXRFvNoiyfa4okjFO9KztcVGRcM+/gX/y63oMDkom8ePdrdLXuvQulX/qIUvx+TPkx80m1u8rhyQFRhyaVf/bcfJumpPEnfhwIAIKnFQlKvAJLwM65pM4q+/IPvGx63HMdpaZT9gMtxnKEZTFw2DB8xUnqJxtf3Sy9xuuEjRnz+n752x998Ij1D8YenCXDdJL2cEgAA4DwNG37hx+75wueWfXXY8AvNr35w3z7pJS4aKf7KX47iqwqHjxLv++5XXpnvLJRe5XShUGjOjfMvv/66F/646fFH1rW+edx8BgAAAEf+kyK573EliWHDL5xXdutVN8xLS0uzlaG+plZ6ieGjRkkvIUfxxDVCftLd+8qukydPSv/w15kMHDjwups+cMX75u7csnXHCy/WvlR1sqfHShIz3OT76B8AACAxaWlp02bMuPz6awuKi43d6c2T67p7du2SXmWE/GctchRPXCNHZ4dCIdH3Xbq7u/ft3jNx2lS5Jc5p4MCBpddcXXrN1Sc6Ona/8sqBva8deK3hcFPTiY6Ojrb2HuEvKZqUhBdbAwDgf8l5/wlfCYVCg4cOGTx4yNCMSGZOTvaYMROmTZmQm+uTHwU++PrrHW3t0quMzM6WXkKO4olr8JAhF1500bEjR0RXeaWqyu7E9a7BQ4ZMLymZXlJiOwgAAIACP/5/FbYjJIXaHVXSS0SGZWRcMEx6FTmK75zhOE7O+HHSS2x5+lk+ewEAAEmLF0I4u23PPie9RM648dJLiNI9cY0eJz5xHTt8+LVX66RXAQAA8CeuKsRZHGhoaDpwQHqV0RePlV5ClO6Ja/zkiQZW2frsswZWAQAA8CE+48JZbH3KxOvk8VNyDawiR/fENWGKiW9YbX/muRMdHQYWAgAAALTo7u7e8vTTBhaawMRlUWRYxsjsLOlVTnR0PPv7x6VXAQAASEJctajX80/8sa21VXqV4SNGDB8xQnoVUYrvVfi2SdOmtTQdkl5l84aN19180wB7vysHnInb69bX1lRvqzzS3NwWjaZHIiOzsgpKinPzC8Ip5/uWimhxUSQ3X1wv2uKJtpiXtD3nqkWlTp48uWn9owYWmpg3zcAqotRPXNNmznhx85PSq7Qef+uFTZvn3DhfeiGgT6q2bF1fsfpwY+Mp/33zho2ZOaPLFpUXzSr1Z3FRJDdfXC/a4om2mEfPoc7Wp585dvSogYWmzZhuYBVRKcuWLrGd4bxcMHz4H3/zqIF3R17fvefK912fNnCg9ELoX7uqdjbUyd5t8qY7bhet78l13bXLV65ZvqI9GvV8QHs0Wvnc850dnVOLCvt6wYZocVEkN19cL9riibaY5/+eP/bwGtEXWhOm5ObNnCFXHxI6T5z47+/9sLPzhPRCoVDoI3/zyUGDB0svJEr9xDUgLa32parj8hN2T3d3Z+eJwksvlV4I/SuoE9fa5Ss3b9h4zoc11Nd3dXbnzSjyT3FRJDdfXC/a4om2mOf/nktPXOMnT84vnilXHxJ+s/pXu14W/+Fjx3HGXDJ+XtkCAwuJCsJlwUWlJWYWeu7xP+7bs9fMWsBZVG3ZGs+f57dtevTRndu2+6S4KJKbL64XbfFEW8zT0XPhC4n4sFSdQwfeeOqxePfb8zTjsllmFhIVhImr+IorzCwUi7n/76f/ebKnx8xygCe3111fsbpPm6xbVeH2utaLiyK5+eJ60RZPtMU8NT0XHoi4c4Yubq9b8eBPe0/2mlnO2Ot8UUGYuEZkZV48cYKZtQ40NKxb9UszawGe6qqrT/9q9dk1H2zcXVtrvbgokpsvrhdt8URbzFPTcz7jwp959H9/1VBXb2atnHHjssbkmFlLVBAmLsdxSq66ythaTz32O66jgEU1lTsS2Ko6vq1Ei4siufnietEWT7TFPDU9ZyDC/9n18s4n1v3G2HKXXnWlsbVEBWTiuuzaOamphu50H4vFKh54sKWpycxywClamhP5Abo4f7ZOtLgokpsvrhdt8URbzKPn0OXo4cMr/+0nsZih61rD4fDl180xs5a0gExckWEZhabun+E4Tns0+pNvfKv1zePGVgTe1R5tS2CrtmhcPwkvWlwUyc0X14u2eKIt5qnpOV+zguO0t7U98K3vtB5/y9iK+cUzLxg+3NhyogIycTmOc+X75ppc7ujhww9+5/6uzk6TiwKO46RHIglsFcnIsF5cFMnNF9eLtniiLeap6TlXFSa9nu7un33ne81vHDS56BXvu97kcqKCM3FNm1Fk+Kt1+/e+9rP7v8fQBcNGZmUltFW29eKiSG6+uF60xRNtMU9Nz/mMK7n1dHf//Ac/2vvqqyYXHZGZWVhi7vo1acGZuEKh0PU332R40brqmh8v+3pbK9dUwJyCkuIEtiosjWsr0eKiSG6+uF60xRNtMY+ev4N7FfpYV2fnT7/zvertlYbXvf7mm8Lh4Mwpwfl/4jjOZdfOiQwz/VH7/j17f/y1rx8/dszwukhaufkFmTmj+7RJ1picSXl51ouLIrn54nrRFk+0xTx6/g5+j8uvWo+/9aOvLHt1507D6w5JHzp77nWGFxUVqIlrQFradTffbH7dpgMH7v/SveZ3RySncEq4bFF5nzZZuHhxnG8UiRYXRXLzxfWiLZ5oi3n0/B18xuVL+/fs/f7S+w40NJhf+rqbbho4aJD5deUE7aC97uYPmP+Yy3Gc6FutD/zztzf++mFjd8xEMiuaVTr3llvifPC8sgV9unBFtLgokpsvrhdt8URbzKPn8Kfn/vDED+776tHDh80vPXjIkOtu+oD5dUWlLFu6xHaG/pSamuo4oVdftvBxUywW211bu3/vaxPzpg0eMsR8AHjaVbWzoa5OdImb7rhdtL6nqUWFXZ3d5/y/Nq9swa3ld4b6+PahaHFRJDdfXC/a4om2mOf/nj/20JqY5IV/l+ROzps5Q64++uT4m8dW/eSBJ37zqOva+RThxtsWBm9/CNrE5TjO2AmX/GnzU50nTlhZ/XBT0/N/+OOAtNTxkyaHwvwpsi+oE1coFMqbUTR2woQDDQ3t0ejpD8gak7P47rvn3Dg/gT/PosVFkdx8cb1oiyfaYp7/ey4/ceUG7xW2Rq7rPvO73//X9374xuuv28qQccGwj93z+dQBA2wFEBLqOV5jO0P/2/LUMyt/8u92M+SMH1dWfmd+8Uy7MbB2RcWmRx8VXeLBRx4WrX92ruvurqmtrtzR0nSoLdqaHskYlZ1dUFI8OT/v/K/1Fy0uiuTmi+tFWzzRFvN82/O7P3SH6Mcd199y84c+dpdcfcSjbmf1ul+u3r9nr90Y5Uv+9gqzP7FrRjAnrlgs9v2l972+e4/tIE7O+HE3fui2mbMv571AWwI/cQEAIOqzt90h+jV1Ji679r766ob//XVdtf2JYMwl45d+/3uBfE8n1XYAEaFQ6MMf/9gP7vua9ftYHHx9389/8KPRF1985by5JVddZeWuHgAAAAkLhbh/ewC1t7Vtf+bZFzY/deC112xncRzHCYVCt3/y44Ect5ygTlyO41wyJfea+Tc8/bvf2w7iOI7TuH//w/+z/JGVqwqKi4uvmD1l+vSMC4bZDgUAAIDkEn2rta6m5qUXXqzeXnmyp8d2nPfMnnv9pGnTbKeQEtiJy3GcW8v/aufWrW8e9ctvE/ee7H1567aXt24LhULZY8dOnV54yZTcrJycUaOzB6Sl2U4HAACAoDnZ03O4qenQGwcb6vfUVe88+Pp+65eAnS7jwgsWLl5kO4WgIE9cgwYP+cinP/Wz+78neoOdBMRiscb9+xv373c2bHQcJxQKDx854qJRowYOGjRoyOCBgwYNGTrUdsbg2PNKre0IAADgjPbu2rW+YrXtFMHR0d7e3dnZeeJEV2fn0ZaWY4dbbN3nPX53fPITQ9KD/Oo3yBOX4ziFJZdeOe99z/3hCdtBziYWc48ePmzlN+YAAADOTvqN63179u6zfYs8WDT7+utmzr7cdgpZwfx22p/70Mc/mpkz2nYKAAAAAH/holGjPvyJj9pOIS74E1daWtrH7/kCX5QCAAAA/CN1wIBPfOmeQYOH2A4iLvgTl+M4YydM+OvP/K3tFAAAAADe8eGPfXT85Em2U5iQFBOX4ziXzbk6kL9gDQAAAKhTes3VV8+/wXYKQ5Jl4nIc5yOf+mRuQYHtFAAAAEBSu3jSxL/+zKdtpzAniSau1NTUv7n3i6NGcxcNAACA+PnrV3ag3fBRo5bc9+WBAwfaDmJOwO8Of4qhkciS+/7x+1/+ans0ajsL0D/cXre+tqZ6W+WR5ua2aDQ9EhmZlVVQUpybXxBO8fVbKiQ3j+Tmkdw8kgsIMXShvwwZOuSzX1maccEw20GMCvUcr7GdwbQ3Gl7/12X/1NHeYTsIAuLBRx62tXTVlq3rK1Yfbmw8/Z8yc0aXLSovmlVqPlU8SG4eyc0juXkkl/DZ226PSf8mF5JDWlra3f/01UnTptkOYlrKsqVLbGcwLePCCybl5VU+93xvb6/tLAiCm+643fyiruuuXb5yzfIVZ/rAtj0arXzu+c6OzqlFhaFQyHC8syC5eSQ3j+TmkVzOYw9Ze2MRQZKamvqpf7x36vRC20EsSMaJy3GcC0eMuHjihJf+tMVl6MJ5szJxrV2+cvOGjed8WEN9fVdnd96MIgOR4kRy80huHsnNI7mcxx5aw1WFOE+pAwZ88t4vFZZcajuIHb6+oFlU3swZn1v2lUGDB9sOAvRZ1Zat8fx5ftumRx/duW27aJ74kdw8kptHcvNILoxxC+clLS3tb5f+w/TSEttBrEneictxnEl5eZ/96n1Dhgb/h64RJG6vu75idZ82Wbeqwu11hfLEj+Tmkdw8kptHcnk+uggT6gwaPHjJ1+7LmznDdhCbknrichxn4rSpX/rOty4aOdJ2ECBeddXVnl+tPovmg427a2uF8sSP5OaR3DySm0dyeXzGhQQNG37hPd/8em5+vu0gliX7xOU4TvbYsX9//7fHTphgOwgQl5rKHQlsVZ3QVv2L5OaR3DySm0dywJ+yx46997vf4TW2w8T1tmHDL/zit75RPPty20GAc2tpPpTIVk2JbNW/SG4eyc0juXkkB3xoemnJvd/91vARI2wH8QUmrncMHDToE3//xQ9/4mO2f2QQOIf2aFsCW7VFW/s9SV+R3DySm0dy80gO+EooFLrhg2WfXnrvoMHcK+EdqbYD+EgoFLrupg+MHjt2xU/+/a1jb9qOA3hLj0QS2CqSkdHvSfqK5OaR3DySm0dywD8iwzLu+vznkvw+Gafj85xTTZle+JUf/SCZ718JnxuZlZXQVtn9nqTvGUhuGsnNI7l5JAd8Yur06V/+0fcZt07HxOUhPSPj00v/4a8+/Sk+DIUPFZQUJ7BVYWkiW/UvkptHcvNIbh7JAesGDhx4+8c//rl/+uoFFw63ncWPmLi8hUKhq98/75/+/V+LZs2ynQX4C7n5BZk5o/u0SdaYnEl5eUJ54kdy80huHsnNI7m0WIy7w+NsJufn3fej7197842hED/d5o2J62yGDb/w00vv/fiX7hl+0UW2swDvCKeEyxaV92mThYsXh8P2D3aSm0dy80huHsml8TIaZ3LBhcPv+sLn7/nmN0Zmc7Hr2aQsW7rEdga/G33x2Kvm35CSkvr67t1ub6/tOPCdm+643fCKWTk5nR2dDfX18Tx4XtmCOTfOl44UJ5KbR3LzSG4eyUVt/PVD5heFz6Wkpsz5wPxP/ePfj580yXYWBZi44pKSkpJbkH/ZtXM6T3Qe3LePj9fx58xPXI7jTC0q7OrsbqirO/vD5pUtuLX8Tl+9PUly80huHsnNI7mcxx5aY35R+FY4HL7s2ms/9Q9fKr3qqtQBA2zH0SHUc7zGdgZlWpoOPfbQQ9uee97tdW1ngS88+MjDtpbeuW37ulUVzQcbT/+nrDE5CxcvTuxr2QaQ3DySm0dy80gu4bO33c57zXAcJxwOX3rlFR+4/cN9/f4hmLgSdLSl5dnf/+HZx/9woqPDdhZYZnHichzHdd3dNbXVlTtamg61RVvTIxmjsrMLSoon5+f54VsKZ0Fy80huHsnNI3m/W7LwwxZXhx+kDhhw6ZWz5992G7NWYpi4zktHW/ufnnzyuSf+eOiNg7azwBq7ExcAAKKYuJLZqNGjr3zf3NnXX5vOT2+fh1TbAXQbkj70+ltuvv6Wm/fs2vXi5idf3rK1o63ddigAAAAgcYOHDCmaNevyuddOzsvz1fcelWLi6h+Tpk2bNG3aX33qb155+eWXnn+hZkdVezRqOxQAAAAQryHpQ/Nnziy+cnbejBkD0tJsxwkOJq7+lDpgwPSSkuklJa7r7tu9p+all+qra/bt2Xuyp8d2NAAAAOBUKakpF0+cOKUgP7+4+JIpuT7/uqNSTFwiwuHwJVNyL5mS63zkjp7u7n17976269UDDQ1v7Nvf0tjkutzkEAAAABaEQuGR2Vljxo8bM378hGlTxk+enMbHWcKYuMQNSEt7+5rDt/9nT3f34camI4ebjzYfPtJyuPXY8bbWaHs02h6Ndnd3OY5zor2De7ACAAAgMUPShzqOkzZg4JBIenokkp4RyRh+4UUjRwwflTkic1RmTg4jlmHcqxAAAAAApHClJgAAAABIYeICAAAAAClMXAAAAAAghYkLAAAAAKQwcQEAAACAFO4OD+CM3F63vramelvlkebmtmg0PRIZmZVVUFKcm18QTkne92v0tkVvclGibaE4xX1SHIBF3B0egLeqLVvXV6w+3Nh4+j9l5owuW1ReNKvUfCrr9LZFb3JRom2hOMV9UhyAXSnLli6xnQGAv7iuu3b5yjXLV7RHo54PaI9GK597vrOjc2pRYSgUMhzPFr1t0ZtclGhbKE5xnxQH4AdMXABOtXb5ys0bNp7zYQ319V2d3XkzigxE8gO9bdGbXJRoWyhOcZ8UB+AHXBYM4C9Ubdkaz9/+t2169NGd27aL5vEJvW3Rm1yUaFsoTnGfFAfgE0xcAN7j9rrrK1b3aZN1qyrcXlcoj0/obYve5KJE20JxivukOAD/YOIC8J666mrP722fRfPBxt21tUJ5fEJvW/QmFyXaFopT3CfFAfgHExeA99RU7khgq+qEtlJEb1v0Jhcl2haKU9wnxQH4BxMXgPe0NB9KZKumRLZSRG9b9CYXJdoWilPcJ8UB+AcTF4D3tEfbEtiqLdra70l8RW9b9CYXJdoWilPcJ8UB+AcTF4D3pEciCWwVycjo9yS+orctepOLEm0LxSnuk+IA/IOJC8B7RmZlJbRVdr8n8RW9bdGbXJRoWyhOcZ8UB+AfTFwA3lNQUpzAVoWliWyliN626E0uSrQtFKe4T4oD8A8mLgDvyc0vyMwZ3adNssbkTMrLE8rjE3rboje5KNG2UJziPikOwD+YuAC8J5wSLltU3qdNFi5eHA4H/Eyity16k4sSbQvFKe6T4gD8I2XZ0iW2MwDwkaycnM6Ozob6+ngePK9swZwb50tH8gO9bdGbXJRoWyhOcZ8UB+ATTFwATjW1qLCrs7uhru7sD5tXtuDW8jtDoZCZVNbpbYve5KJE20JxivukOAA/CPUcr7GdAYAf7dy2fd2qiuaDjaf/U9aYnIWLFyf2nW/t9LZFb3JRom2hOMV9UhyAXUxcAM7Idd3dNbXVlTtamg61RVvTIxmjsrMLSoon5+cl8xcJ9LZFb3JRom2hOMV9UhyARUxcAAAAACCFt0wAAAAAQAoTFwAAAABIYeICAAAAAClMXAAAAAAghYkLAAAAAKQwcQEAAACAFCYuAAAAAJDCxAUAAAAAUpi4AAAAAEAKExcAAAAASGHiAgAAAAApqbYDCHJ73framuptlUeam9ui0fRIZGRWVkFJcW5+QTgleUdNvW0RTU5bzOMJ9aS3LXp7rpfenrMrmqe3LXqTA+8K9RyvsZ1BRNWWresrVh9ubDz9nzJzRpctKi+aVWo+lXV62yKanLaYxxPqSW9b9PZcL709Z1c0T29b9CYH/lzKsqVLbGfoZ67rrl2+cs3yFe3RqOcD2qPRyuee7+zonFpUGAqFDMezRW9bRJPTFvN4Qj3pbYvenuult+fsiubpbYve5MDpAjhxrV2+cvOGjed8WEN9fVdnd96MIgOR/EBvW0ST0xbzeEI96W2L3p7rpbfn7Irm6W2L3uTA6YI2cVVt2bpm+Yo4H9xQVzd2woTMnNGSiXxBb1tEk9MW83hCPelti96e66W35+yK5ulti97kgKdAfePQ7XXXV6zu0ybrVlW4va5QHp/Q2xbR5LTFPJ5QT3rborfneuntObuieXrbojc5cCaBmrjqqqs9v1t5Fs0HG3fX1grl8Qm9bRFNTlvM4wn1pLctenuul96esyuap7ctepMDZxKoiaumckcCW1UntJUietsimpy2mMcT6klvW/T2XC+9PWdXNE9vW/QmB84kUBNXS/OhRLZqSmQrRfS2RTQ5bTGPJ9Q7g9q26O25Xnp7zq5ont626E0OnEmgJq72aFsCW7VFW/s9ia/obYtoctpiHk+oJ71t0dtzvfT2nF3RPL1t0ZscOJNATVzpkUgCW0UyMvo9ia/obYtoctpiHk+oJ71t0dtzvfT2nF3RPL1t0ZscOJNATVwjs7IS2iq735P4it62iCanLebxhJ4hg9a26O25Xnp7zq5ont626E0OnEmgJq6CkuIEtiosTWQrRfS2RTQ5bTGPJ9ST3rbo7bleenvOrmie3rboTQ6cSaAmrtz8gr7+/l3WmJxJeXlCeXxCb1tEk9MW83hCPelti96e66W35+yK5ulti97kwJkEauIKp4TLFpX3aZOFixeHw4Fqwun0tkU0OW0xjyfUk9626O25Xnp7zq5ont626E0OnEnKsqVLbGfoT1k5OZ0dnQ319fE8eF7Zgjk3zpeO5Ad62yKanLaYxxPqSW9b9PZcL709Z1c0T29b9CYHPAVt4nIcZ2pRYVdnd0Nd3dkfNq9swa3ld4ZCITOprNPbFtHktMU8nlBPetuit+d66e05u6J5etuiNzlwugBOXKFQKG9G0dgJEw40NLRHo6c/IGtMzuK7755z4/ykOj71tkU0OW0xjyfUk9626O25Xnp7zq5ont626E0OnC7Uc7zGdgYpruvurqmtrtzR0nSoLdqaHskYlZ1dUFI8OT8vmS/21dsW0eS0xTyeUE9626K353rp7Tm7onl626I3OfCuIE9cAAAA4idyfwAAIABJREFUAGAX7w0AAAAAgBQmLgAAAACQwsQFAAAAAFKYuAAAAABAChMXAAAAAEhh4gIAAAAAKUxcAAAAACCFiQsAAAAApDBxAQAAAIAUJi4AAAAAkMLEBQAAAABSUm0H0Mrtdetra6q3VR5pbm6LRtMjkZFZWQUlxbn5BeGU851j9RYXRfKAFddLb1tIjvhxbjFPb8/1FocnntB+F+o5XmM7gz5VW7aur1h9uLHx9H/KzBldtqi8aFZpEhYXRfKAFddLb1tIjvhxbjFPb8/1FocnnlAJKcuWLrGdQRPXddcuX7lm+Yr2aNTzAe3RaOVzz3d2dE4tKgyFQklSXBTJA1ZcL71tITnix7nFPL0911scnnhC5TBx9c3a5Ss3b9h4zoc11Nd3dXbnzShKkuKiSB6w4nrpbQvJET/OLebp7bne4vDEEyqHiasPqrZsXbN8RZwPbqirGzthQmbO6MAXF0XygBXXS29bSI74cW4xT2/P9RaHJ55QUYH9glq/c3vd9RWr+7TJulUVbq8b7OKiSB6w4nrpbQvJET/OLebp7bne4vDEEyqNiSteddXVnt/zO4vmg427a2uDXVwUyQNWXC+9bSE54se5xTy9PddbHJ54QqUxccWrpnJHAltVx7eV3uKiSB6w4nrpbQvJET/OLebp7bne4vDEEyqNiSteLc2HEtmqKa6t9BYXRfKAFddLb1tIjvhxbjFPb8/1FocnnlBpTFzxao+2JbBVW7Q12MVFkTxgxfXS2xaSI36cW8zT23O9xeGJJ1QaE1e80iORBLaKZGQEu7gokgesuF5620JyxI9zi3l6e663ODzxhEpj4orXyKyshLbKDnZxUSQPWHG99LaF5Igf5xbz9PZcb3F44gmVxsQVr4KS4gS2KiyNayu9xUWRPGDF9dLbFpIjfpxbzNPbc73F4YknVBoTV7xy8wv6+ltsWWNyJuXlBbu4KJIHrLheettCcsSPc4t5enuutzg88YRKY+KKVzglXLaovE+bLFy8OByOq8N6i4siecCK66W3LSRH/Di3mKe353qLwxNPqLSUZUuX2M6gRlZOTmdHZ0N9fTwPnle2YM6N85OhuCiSB6y4XnrbQnLEj3OLeXp7rrc4PPGEimLi6pupRYVdnd0NdXVnf9i8sgW3lt8ZCoWSpLgokgesuF5620JyxI9zi3l6e663ODzxhMph4uqbUCiUN6No7IQJBxoa2qPR0x+QNSZn8d13z7lxfgL7it7iokgesOJ66W0LyRE/zi3m6e253uLwxBMqJ9RzvMZ2BpVc191dU1tduaOl6VBbtDU9kjEqO7ugpHhyft75X3iqt7gokgesuF5620JyxI9zi3l6e663ODzxhPY7Ji4AAAAAkBLYURIAAAAArGPiAgAAAAApTFwAAAAAIIWJCwAAAACkMHEBAAAAgBQmLgAAAACQwsQFAAAAAFKYuAAAAABAChMXAAAAAEhh4gIAAAAAKUxcAAAAACAl1XYAmOb2uvW1NdXbKo80N7dFo+mRyMisrIKS4tz8gnCKrydw0eS0BfGj5+Zx+HsiecDobYveI5SeB6y4b4V6jtfYzgBzqrZsXV+x+nBj4+n/lJkzumxRedGsUvOp4iGanLYgfvTcPA5/TyQPGL1t0XuE0vOAFfezlGVLl9jOABNc1127fOWa5Svao1HPB7RHo5XPPd/Z0Tm1qDAUChmOdxaiyWkL4kfPzePw90TygNHbFr1HKD0PWHH/Y+JKFmuXr9y8YeM5H9ZQX9/V2Z03o8hApDiJJqctiB89N4/D3xPJA0ZvW/QeofQ8YMX9j4krKVRt2bpm+Yo4H9xQVzd2woTMnNGSieIlmpy2IH703DwOf08kDxi9bdF7hNLzgBVXIbBfUMO73F53fcXqPm2yblWF2+sK5YmfaHLagvjRc/M4/D2RPGD0tkXvEUrPA1ZcCyau4Kurrvb8huJZNB9s3F1bK5QnfqLJaQviR8/N4/D3RPKA0dsWvUcoPQ9YcS2YuIKvpnJHAltVJ7RV/xJNTlsQP3puHoe/J5IHjN626D1C6XnAimvBxBV8Lc2HEtmqKZGt+pdoctqC+NFz8zj8vTOQPFj0tkXvEUrPA1ZcCyau4GuPtiWwVVu0td+T9JVoctqC+NFz8zj8PZE8YPS2Re8RSs8DVlwLJq7gS49EEtgqkpHR70n6SjQ5bUH86Ll5HP6eSB4wetui9wil5wErrgUTV/CNzMpKaKvsfk/S9wyCyWkL4kfPzePwP0MGkgeK3rboPULpecCKa8HEFXwFJcUJbFVYmshW/Us0OW1B/Oi5eRz+nkgeMHrbovcIpecBK64FE1fw5eYX9PVX5LLG5EzKyxPKEz/R5LQF8aPn5nH4eyJ5wOhti94jlJ4HrLgWTFzBF04Jly0q79MmCxcvDoft7xuiyWkL4kfPzePw90TygNHbFr1HKD0PWHEtUpYtXWI7A8Rl5eR0dnQ21NfH8+B5ZQvm3DhfOlKcRJPTFsSPnpvH4e+J5AGjty16j1B6HrDiKjBxJYupRYVdnd0NdXVnf9i8sgW3lt8ZCoXMpIqHaHLagvjRc/M4/D2RPGD0tkXvEUrPA1bc/5i4kkUoFMqbUTR2woQDDQ3t0ejpD8gak7P47rvn3Djfb3u5aHLagvjRc/M4/D2RPGD0tkXvEUrPA1bc/0I9x2tsZ4BRruvurqmtrtzR0nSoLdqaHskYlZ1dUFI8OT/P55fMiianLYgfPTePw98TyQNGb1v0HqH0PGDFfYuJCwAAAACkBHaUBAAAAADrmLgAAAAAQAoTFwAAAABIYeICAAAAAClMXAAAAAAghYkLAAAAAKQwcQEAAACAFCYuAAAAAJDCxAUAAAAAUpi4AAAAAEAKExcAAAAASEm1HQAIPrfXra+tqd5WeaS5uS0aTY9ERmZlFZQU5+YXhFN8/a4HyQNGtC16e643uSj2FsRP7xPKfm5ecrYl1HO8xnYGIMiqtmxdX7H6cGPj6f+UmTO6bFF50axS86niQfKAEW2L3p7rTS6KvQXx0/uEsp+bl7RtSVm2dIntDEAwua67dvnKNctXtEejng9oj0Yrn3u+s6NzalFhKBQyHO8sSB4wom3R23O9yUWxtyB+ep9Q9nPzkrwtTFyAlLXLV27esPGcD2uor+/q7M6bUWQgUpxIHjCibdHbc73JRbG3IH56n1D2c/OSvC1MXICIqi1b1yxfEeeDG+rqxk6YkJkzWjJRvEgeMKJt0dtzvclFsbcgfnqfUPZz82hLYL+gBljk9rrrK1b3aZN1qyrcXlcoT/xIHjCibdHbc73JRbG3IH56n1D2c/Noi8PEBUioq672/FboWTQfbNxdWyuUJ34kDxjRtujtud7kothbED+9Tyj7uXm0xWHiAiTUVO5IYKvqhLbqXyQPGNG26O253uSi2FsQP71PKPu5ebTFYeICJLQ0H0pkq6ZEtupfJA8Y0bbo7bne5KLYWxA/vU8o+7l5tMVh4gIktEfbEtiqLdra70n6iuQBI9oWvT3Xm1wUewvip/cJZT83j7Y4TFyAhPRIJIGtIhkZ/Z6kr0geMKJt0dtzvclFsbcgfnqfUPZz82iLw8QFSBiZlZXQVtn9nqTvGUgeKKJt0dtzvclFsbcgfnqfUPZz82iLw8QFSCgoKU5gq8LSRLbqXyQPGNG26O253uSi2FsQP71PKPu5ebTFYeICJOTmF/T1l/uyxuRMyssTyhM/kgeMaFv09lxvclHsLYif3ieU/dw82uIwcQESwinhskXlfdpk4eLF4bD945HkASPaFr0915tcFHsL4qf3CWU/N4+2OI6TsmzpEtsZgADKysnp7OhsqK+P58HzyhbMuXG+dKQ4kTxgRNuit+d6k4tib0H89D6h7Ofm0RYmLkDK1KLCrs7uhrq6sz9sXtmCW8vvDIVCZlLFg+QBI9oWvT3Xm1wUewvip/cJZT83L8nbEuo5XmM7AxBkO7dtX7eqovlg4+n/lDUmZ+HixYl9o9QAkgeMaFv09lxvclHsLYif3ieU/dy8pG0LExcgznXd3TW11ZU7WpoOtUVb0yMZo7KzC0qKJ+fn+fwyZZIHjGhb9PZcb3JR7C2In94nlP3cvORsCxMXAAAAAEgJ7CgJAAAAANYxcQEAAACAFCYuAAAAAJDCxAUAAAAAUpi4AAAAAEAKExcAAAAASGHiAgAAAAApTFwAAAAAIIWJCwAAAACkMHEBAAAAgBQmLgAAAACQkmo7gCC3162vraneVnmkubktGk2PREZmZRWUFOfmF4RTznfUpDjFfVJcFG3xpDc54BN6DyK9Z0W9xfWiLZ6Ssy2hnuM1tjOIqNqydX3F6sONjaf/U2bO6LJF5UWzSilOce3FRdEWT3qTAz6h9yDSe1bUW1wv2uIpaduSsmzpEtsZ+pnrumuXr1yzfEV7NOr5gPZotPK55zs7OqcWFYZCIYpTXGNxUbTFk97kgE/oPYj0nhX1FteLtnhK8rYEcOJau3zl5g0bz/mwhvr6rs7uvBlFFKe4xuKiaIsnvckBn9B7EOk9K+otrhdt8ZTkbQnaxFW1Zeua5SvifHBDXd3YCRMyc0ZTnOK6iouiLZ70Jgd8Qu9BpPesqLe4XrTFE20J1BfU3F53fcXqPm2yblWF2+tSnOKKiouiLZ70Jgd8Qu9BpPesqLe4XrTFE21xAjZx1VVXe34V7yyaDzburq2lOMUVFRdFWzzpTQ74hN6DSO9ZUW9xvWiLJ9riBGziqqnckcBW1fFtRXGK+6S4KNriSW9ywCf0HkR6z4p6i+tFWzzRFidgE1dL86FEtmqKayuKU9wnxUXRFu8MapMDPqH3INJ7VtRbXC/a4om2OAGbuNqjbQls1RZtpTjFFRUXRVs86U0O+ITeg0jvWVFvcb1oiyfa4gRs4kqPRBLYKpKRQXGKKyouirZ40psc8Am9B5Hes6Le4nrRFk+0xQnYxDUyKyuhrbIpTnFFxUXRljNk0Joc8Am9B5Hes6Le4nrRFk+0xQnYxFVQUpzAVoWlcW1FcYr7pLgo2uJJb3LAJ/QeRHrPinqL60VbPNEWJ2ATV25+QV9/Li1rTM6kvDyKU1xRcVG0xZPe5IBP6D2I9J4V9RbXi7Z4oi1OwCaucEq4bFH5/2fvjqPjSu8yz9ctmaQ7qDQk4HbJZYegtI2RSpQRss/AbOJzJmOwycQtes6mGVoWuwvMHIyHYc5wwLCLDwywMLOzCxOggWUmsi18GGir7XjaQAjtkKE7wXbLUbqkNJJJCmIsW5YTHF1JXZKiq/0jnF4mvi1Xler33vu89f38Sdf91cPzviXn1y1ZdT3y5NBQNltTCQxneEqGm6KWWLrJgZTQ/RDpflXUHa6LWmJRSyaTaTt54ljSGZopXyhUl6qV6elaXnxw4MiBw4cYznC54aaoJZZuciAldD9Eul8VdYfropZY1OLbxpXJZPaUeperK5WpqY1fdnDgyBODTwdBwHCGKw43RS2xdJMDKaH7IdL9qqg7XBe1xGrxWjzcuIIg6N5b2tnVdbNSWQzDB1+Q31EYOn78wOFDDRwnwxmekuGmqCWWbnIgJXQ/RLpfFXWH66KWWC1eS7B6fyLpDFaiKLoxMVkeuz53+85CON+e63iss7PY37erp3vz3xvKcIanZLgpaomlmxxICd0Pke5XRd3huqglVmvW4vPGBQAAAADJ8naVBAAAAIDEsXEBAAAAgBU2LgAAAACwwsYFAAAAAFbYuAAAAADAChsXAAAAAFhh4wIAAAAAK2xcAAAAAGCFjQsAAAAArLBxAQAAAIAVNi4AAAAAsLIl6QCGorVoenKifG3s3uzsQhi253Jb8/lif9/unmK2jVVTj+6BmibXHW5KN7kuriJaAffcM7qd615F3c43I1i9P5F0BhPjV65eGDl7d2bmwX+0rbB94Ohgaf8+96nQMN0DNU2uO9yUbnJdXEW0Au65Z3Q7172Kup1vUtvJE8eSztBkURSNDp8+N3xqMQxjX7AYhmMvvlRdqu4p9QZB4Dge6qV7oKbJdYeb0k2ui6uIVsA994xu57pXUbfzpvBw4xodPn35+UsPfVllenq5utK9t+QgEjZD90BNk+sON6WbXBdXEa2Ae+4Z3c51r6Ju503h28Y1fuXqueFTNb64MjW1s6trW2G7ZSJsiu6BmibXHW5KN7kuriJaAffcM7qd615F3c6bxasfUIvWogsjZ+t65PyZkWgtMsqDTdI9UNPkusNN6SbXxVVEK+Cee0a3c92rqNt5E3m1cU2Vy7E/ireB2VszNyYnjfJgk3QP1DS57nBTusl1cRXRCrjnntHtXPcq6nbeRF5tXBNj1xt4qtzQU3BA90BNk+sON6WbXBdXEa2Ae+4Z3c51r6Ju503k1cY1N3unkaduN/IUHNA9UNPkusNN6SbXxVVEK+Cee0a3c92rqNt5E3m1cS2GCw08tRDONz0JmkL3QE2T6w43pZtcF1cRrYB77hndznWvom7nTeTVxtWeyzXwVK6jo+lJ0BS6B2qaXHe4Kd3kuriKaAXcc8/odq57FXU7byKvNq6t+XxDT3U2PQmaQvdATZPrDjelm1wXVxGtgHvuGd3Oda+ibudN5NXGVezva+Cp3n2NPAUHdA/UNLnucFO6yXVxFdEKuOee0e1c9yrqdt5EXm1cu3uK9f66tPyOwuPd3UZ5sEm6B2qaXHe4Kd3kuriKaAXcc8/odq57FXU7byKvNq5sW3bg6GBdjzw5NJTNelWCT3QP1DS57nBTusl1cRXRCrjnntHtXPcq6nbeRG0nTxxLOkMz5QuF6lK1Mj1dy4sPDhw5cPiQdSRshu6BmibXHW5KN7kuriJaAffcM7qd615F3c6bxbeNK5PJ7Cn1LldXKlNTG7/s4MCRJwafDoLATSo0TPdATZPrDjelm1wXVxGtgHvuGd3Oda+ibudN4eHGFQRB997Szq6um5XKYhg++IL8jsLQ8eMHDh/y7zi9pHugpsl1h5vSTa6Lq4hWwD33jG7nuldRt/OmCFbvTySdwUoURTcmJstj1+du31kI59tzHY91dhb7+3b1dHv2vaEtQvdATZPrDjelm1wXVxGtgHvuGd3Oda+ibueb4fPGBQAAAADJ8naVBAAAAIDEsXEBAAAAgBU2LgAAAACwwsYFAAAAAFbYuAAAAADAChsXAAAAAFhh4wIAAAAAK2xcAAAAAGCFjQsAAAAArLBxAQAAAIAVNi4AAAAAsLIl6QDwSrQWTU9OlK+N3ZudXQjD9lxuaz5f7O/b3VPMtqV6vTdNTi3u6SY3RS2x+PjHopZYJGd4K6CWpgtW708knQGeGL9y9cLI2bszMw/+o22F7QNHB0v797lPVQvT5NTinm5yU9QSi49/LGqJRXKGtwJqsdB28sSxpDNAXhRFo8Onzw2fWgzD2BcshuHYiy9Vl6p7Sr1BEDiOtwHT5NTinm5yU9QSi49/LGqJRXKGtwJqscPGhSYYHT59+flLD31ZZXp6ubrSvbfkIFKNTJNTi3u6yU1RSyw+/rGoJRbJGd4KqMUOGxc2a/zK1XPDp2p8cWVqamdX17bCdstEtTJNTi3u6SY3RS2x+PjHopZYJGd4Sg7UFLWY4qffsCnRWnRh5Gxdj5w/MxKtRUZ5ameanFrc001uilpi8fGPRS2xSM7wlByoKWqxxsaFTZkql2N/tnIDs7dmbkxOGuWpnWlyanFPN7kpaonFxz8WtcQiOcNTcqCmqMUaGxc2ZWLsegNPlRt6qrlMk1OLe7rJTVFLLD7+saglFskZXvtwXdRijY0LmzI3e6eRp2438lRzmSanFvd0k5uillh8/OMzUEtsBpIzPB0HaoparLFxYVMWw4UGnloI55uepF6myanFPd3kpqglFh//WNQSi+QMr324LmqxxsaFTWnP5Rp4KtfR0fQk9TJNTi3u6SY3RS2x+PjHopZYJGd47cN1UYs1Ni5sytZ8vqGnOpuepP4MhsmpxT3d5KaoJRYf/zfIQC2xGUjO8FQcqClqscbGhU0p9vc18FTvvkaeai7T5NTinm5yU9QSi49/LGqJRXKG1z5cF7VYY+PCpuzuKdb7++/yOwqPd3cb5amdaXJqcU83uSlqicXHPxa1xCI5w1NyoKaoxRobFzYl25YdODpY1yNPDg1ls8lfPNPk1OKebnJT1BKLj38saolFcoan5EBNUYu1tpMnjiWdAdryhUJ1qVqZnq7lxQcHjhw4fMg6Uo1Mk1OLe7rJTVFLLD7+saglFskZXvtwXdRiio0LTbCn1LtcXalMTW38soMDR54YfDoIAjepamGanFrc001uilpi8fGPRS2xSM7wVkAtdti40ARBEHTvLe3s6rpZqSyG4YMvyO8oDB0/fuDwobR9Pk2TU4t7uslNUUssPv6xqCUWyRneCqjFTrB6fyLpDPBHFEU3JibLY9fnbt9ZCOfbcx2PdXYW+/t29XSn/Jt9TZNTi3u6yU1RSyw+/rGoJRbJGd4KqKXp2LgAAAAAwAp7KgAAAABYYeMCAAAAACtsXAAAAABghY0LAAAAAKywcQEAAACAFTYuAAAAALDCxgUAAAAAVti4AAAAAMAKGxcAAAAAWGHjAgAAAAArbFwAAAAAYGVL0gEMRWvR9ORE+drYvdnZhTBsz+W25vPF/r7dPcVs22ZXTd3hcI8DjaX7IWK4++GmdGuhc6QEB+oZDrTpgtX7E0lnMDF+5eqFkbN3Z2Ye/EfbCtsHjg6W9u9rweFwjwONpfshYrj74aZ0a6FzpAQH6hkO1ELbyRPHks7QZFEUjQ6fPjd8ajEMY1+wGIZjL75UXaruKfUGQdAiw+EeBxpL90PEcPfDTenWQudICQ7UMxyoHQ83rtHh05efv/TQl1Wmp5erK917Sy0yHO5xoLF0P0QMdz/clG4tdI6U4EA9w4Ha8W3jGr9y9dzwqRpfXJma2tnVta2w3fvhcI8DjaX7IWK4++GmdGuhc6QEB+oZDtSUVz/9Fq1FF0bO1vXI+TMj0Vrk93C4x4HG0v0QMdz9cFO6tdA5UoID9QwHas2rjWuqXI79Ob8NzN6auTE56fdwuMeBxtL9EDHc/XBTurXQOVKCA/UMB2rNq41rYux6A0+Va3tKdzjc40Bj6X6IGO5+uCndWugcKcGBeoYDtebVxjU3e6eRp27X9JTucLjHgcbS/RAx3P1wU7q10DlSggP1DAdqzauNazFcaOCphXDe7+FwjwONpfshYrj74aZ0a6FzpAQH6hkO1JpXG1d7LtfAU7mODr+Hwz0ONJbuh4jh7oeb0q2FzpESHKhnOFBrXm1cW/P5hp7q9Hs43ONAY+l+iBjufrgp3VroHCnBgXqGA7Xm1cZV7O9r4KnefTU9pTsc7nGgsXQ/RAx3P9yUbi10jpTgQD3DgVrzauPa3VOs93ex5XcUHu/u9ns43ONAY+l+iBjufrgp3VroHCnBgXqGA7Xm1caVbcsOHB2s65Enh4ay2ZpK0B0O9zjQWLofIoa7H25KtxY6R0pwoJ7hQK21nTxxLOkMzZQvFKpL1cr0dC0vPjhw5MDhQ60wHO5xoLF0P0QMdz/clG4tdI6U4EA9w4Ga8m3jymQye0q9y9WVytTUxi87OHDkicGngyBokeFwjwONpfshYrj74aZ0a6FzpAQH6hkO1I6HG1cQBN17Szu7um5WKoth+OAL8jsKQ8ePHzh8qIG7ojsc7nGgsXQ/RAx3P9yUbi10jpTgQD3DgdoJVu9PJJ3BShRFNyYmy2PX527fWQjn23Mdj3V2Fvv7dvV0b/4bT3WHwz0ONJbuh4jh7oeb0q2FzpESHKhnONCm83njAgAAAIBksacCAAAAgBU2LgAAAACwwsYFAAAAAFbYuAAAAADAChsXAAAAAFhh4wIAAAAAK2xcAAAAAGCFjQsAAAAArLBxAQAAAIAVNi4AAAAAsMLGBQAAAABWtiQdQFW0Fk1PTpSvjd2bnV0Iw/Zcbms+X+zv291TzLZtdo/VHW6KWmKR3DPU4p5u5yR3P9wUyd3TvYq6w1tTsHp/IukMesavXL0wcvbuzMyD/2hbYfvA0cHS/n0tONwUtcQiuWeoxT3dzknufrgpkrunexV1h7estpMnjiWdQUkURaPDp88Nn1oMw9gXLIbh2IsvVZeqe0q9QRC0yHBT1BKL5J6hFvd0Oye5++GmSO6e7lXUHd7i2LjqMzp8+vLzlx76ssr09HJ1pXtvqUWGm6KWWCT3DLW4p9s5yd0PN0Vy93Svou7wFsfGVYfxK1fPDZ+q8cWVqamdXV3bCtu9H26KWmKR3DPU4p5u5yR3P9wUyd3TvYq6w8FPv9UqWosujJyt65HzZ0aitcjv4aaoJRbJPUMt7ul2TnL3w02R3D3dq6g7HBk2rtpNlcuxP0S4gdlbMzcmJ/0ebopaYpHcM9Tinm7nJHc/3BTJ3dO9irrDkWHjqt3E2PUGnirX9pTucFPUEovknqEW93Q7J7n74aZI7p7uVdQdjgwbV+3mZu808tTtmp7SHW6KWuIzkNwv1OKebuckdz/cFMnd072KusORYeOq3WK40MBTC+G838NNUUssknuGWtzT7Zzk7oebIrl7uldRdzgybFy1a8/lGngq19Hh93BT1BKL5J6hFvd0Oye5++GmSO6e7lXUHY4MG1fttubzDT3V6fdwU9TyBhlI7hVqcU+3c5K7H26K5O7pXkXd4ciwcdWu2N/XwFO9+2p6Sne4KWqJRXLPUIt7up2T3P1wUyR3T/cq6g5Hho2rdrt7ivX+orf8jsLj3d1+DzdFLbFI7hlqcU+3c5K7H26K5O7pXkXd4ciwcdUu25YdODpY1yNPDg1lszU1rDvcFLXEIrlnqMU93c5J7n64KZK7p3sVdYcjk8m0nTxxLOkMMvKFQnWpWpmeruXFBweOHDh8qBWGm6KWWCT3DLW4p9s5yd0PN0Vy93Svou5wsHHVZ0+pd7m6Upma2vi0D0HBAAAgAElEQVRlBweOPDH4dBAELTLcFLXEIrlnqMU93c5J7n64KZK7p3sVdYe3ODau+gRB0L23tLOr62alshiGD74gv6MwdPz4gcOHGriIusNNUUssknuGWtzT7Zzk7oebIrl7uldRd3iLC1bvTySdQVIURTcmJstj1+du31kI59tzHY91dhb7+3b1dG/+u1p1h5uillgk9wy1uKfbOcndDzdFcvd0r6Lu8NbExgUAAAAAVthTAQAAAMAKGxcAAAAAWGHjAgAAAAArbFwAAAAAYIWNCwAAAACssHEBAAAAgBU2LgAAAACwwsYFAAAAAFbYuAAAAADAChsXAAAAAFhh4wIAAAAAK1uSDgDXorVoenKifG3s3uzsQhi253Jb8/lif9/unmK2LdUbOMnd002uy7Rz3QMlufvhpkju2XBTJHdPN3lqBav3J5LOAHfGr1y9MHL27szMg/9oW2H7wNHB0v597lPVguTu6SbXZdq57oGS3P1wUyT3bLgpkrunmzzN2k6eOJZ0BrgQRdHo8Olzw6cWwzD2BYthOPbiS9Wl6p5SbxAEjuNtgOTu6SbXZdq57oGS3P1wUyT3bLgpkrunmzz92Lhaxejw6cvPX3royyrT08vVle69JQeRakRy93ST6zLtXPdASe5+uCmSezbcFMnd002efmxcLWH8ytVzw6dqfHFlampnV9e2wnbLRLUiuXu6yXWZdq57oCR3P9wUyT0bbork7ukml8BPv/kvWosujJyt65HzZ0aitcgoT+1I7p5ucl2mneseKMndDzdFcs+GmyK5e7rJVbBx+W+qXI798ccNzN6auTE5aZSndiR3Tze5LtPOdQ+U5O6HmyK5Z8NNkdw93eQq2Lj8NzF2vYGnyg091Vwkd083uS7TznUPlOTuh5siuWfDTZHcPd3kKti4/Dc3e6eRp2438lRzkdw93eS6TDvXPVCSux9uiuSeDTdFcvd0k6tg4/LfYrjQwFML4XzTk9SL5O7pJtdl2rnugZLc/XBTJPdsuCmSu6ebXAUbl//ac7kGnsp1dDQ9Sb1I7p5ucl2mneseKMndDzdFcs+GmyK5e7rJVbBx+W9rPt/QU51NT1J/BpK7pptcl2nnugdKcvfDTZHcs+GmSO6ebnIVbFz+K/b3NfBU775Gnmoukrunm1yXaee6B0py98NNkdyz4aZI7p5uchVsXP7b3VOs91fU5XcUHu/uNspTO5K7p5tcl2nnugdKcvfDTZHcs+GmSO6ebnIVbFz+y7ZlB44O1vXIk0ND2Wzyd4Pk7ukm12Xaue6Bktz9cFMk92y4KZK7p5tcRdvJE8eSzgBz+UKhulStTE/X8uKDA0cOHD5kHalGJHdPN7ku0851D5Tk7oebIrlnw02R3D3d5BLYuFrFnlLvcnWlMjW18csODhx5YvDpIAjcpKoFyd3TTa7LtHPdAyW5++GmSO7ZcFMkd083efqxcbWKIAi695Z2dnXdrFQWw/DBF+R3FIaOHz9w+FDaPkIkd083uS7TznUPlOTuh5siuWfDTZHcPd3k6Res3p9IOgOciqLoxsRkeez63O07C+F8e67jsc7OYn/frp7ulH8/Lsnd002uy7Rz3QMlufvhpkju2XBTJHdPN3lqsXEBAAAAgBX2VAAAAACwwsYFAAAAAFbYuAAAAADAChsXAAAAAFhh4wIAAAAAK2xcAAAAAGCFjQsAAAAArLBxAQAAAIAVNi4AAAAAsMLGBQAAAABW2LgAAAAAwMqWpAMYitai6cmJ8rWxe7OzC2HYnsttzeeL/X27e4rZttZdNU1r0e1ctxY6dz/clG5yU7q16CY3xcc/FrWgdrq3pTWvYrB6fyLpDCbGr1y9MHL27szMg/9oW2H7wNHB0v597lMlzrQW3c51a6Fz98NN6SY3pVuLbnJTfPxjUQtqp3tbWvYqtp08cSzpDE0WRdHo8Olzw6cWwzD2BYthOPbiS9Wl6p5SbxAEjuMlxbQW3c51a6Fz98NN6SY3pVuLbnJTfPxjUQtqp3tbWvwqerhxjQ6fvvz8pYe+rDI9vVxd6d5bchApDUxr0e1ctxY6dz/clG5yU7q16CY3xcc/FrWgdrq3pcWvom8b1/iVq+eGT9X44srU1M6urm2F7ZaJUsG0Ft3OdWuhc/fDTekmN6Vbi25yU3z8Y1ELaqd7W7iKXv2AWrQWXRg5W9cj58+MRGuRUZ6UMK1Ft3PdWujc/XBTuslN6daim9wUH/9Y1ILa6d4WrmLGs41rqlyO/VG8DczemrkxOWmUJyVMa9HtXLcWOnc/3JRuclO6tegmN8XHPxa1oHa6t4WrmPFs45oYu97AU+WGnhJiWotu57q10Ln74aZ0k5vSrUU3uSk+/rGoBbXTvS1cxYxnG9fc7J1GnrrdyFNCTGvR7Vy3Fjp3P9yUbnJTurXoJjfFxz8+A7WgZrq3hauY8WzjWgwXGnhqIZxvepJUMa1Ft3PdWujc/XBTuslN6daim9wUH/9Y1ILa6d4WrmLGs42rPZdr4KlcR0fTk6SKaS26nevWQufuh5vSTW5Ktxbd5Kb4+MeiFtRO97ZwFTOebVxb8/mGnupsepJUMa1Ft3PdWujc/XBTuslN6daim9wUH/83yEAtqJXubeEqZjzbuIr9fQ081buvkaeEmNai27luLXTufrgp3eSmdGvRTW6Kj38sakHtdG8LVzHj2ca1u6dY769Ly+8oPN7dbZQnJUxr0e1ctxY6dz/clG5yU7q16CY3xcc/FrWgdrq3hauY8WzjyrZlB44O1vXIk0ND2axXJTzItBbdznVroXP3w03pJjelW4tuclN8/GNRC2qne1u4iplMpu3kiWNJZ2imfKFQXapWpqdrefHBgSMHDh+yjpQGprXodq5bC527H25KN7kp3Vp0k5vi4x+LWlA73dvCVfRt48pkMntKvcvVlcrU1MYvOzhw5InBp4MgcJMqcaa16HauWwudux9uSje5Kd1adJOb4uMfi1pQO93b0uJX0cONKwiC7r2lnV1dNyuVxTB88AX5HYWh48cPHD7k33FuwLQW3c51a6Fz98NN6SY3pVuLbnJTfPxjUQtqp3tbWvwqBqv3J5LOYCWKohsTk+Wx63O37yyE8+25jsc6O4v9fbt6uj373tC6mNai27luLXTufrgp3eSmdGvRTW6Kj38sakHtdG9La15FnzcuAAAAAEiWt6skAAAAACSOjQsAAAAArLBxAQAAAIAVNi4AAAAAsMLGBQAAAABW2LgAAAAAwAobFwAAAABYYeMCAAAAACtsXAAAAABghY0LAAAAAKywcQEAAACAlS1JBzAUrUXTkxPla2P3ZmcXwrA9l9uazxf7+3b3FLNtm101TYeb0q1Ft3NTdB5LtxbdznXpHijDGZ6S4aZ0k+ui86YLVu9PJJ3BxPiVqxdGzt6dmXnwH20rbB84Oljavy+dw03p1qLbuSk6j6Vbi27nunQPlOEMT8lwU7rJddG5hbaTJ44lnaHJoigaHT59bvjUYhjGvmAxDMdefKm6VN1T6g2CID3DTenWotu5KTqPpVuLbue6dA+U4QxPyXBTusl10bkdDzeu0eHTl5+/9NCXVaanl6sr3XtL6RluSrcW3c5N0Xks3Vp0O9ele6AMZ3hKhpvSTa6Lzu34tnGNX7l6bvhUjS+uTE3t7OraVtiehuGmdGvR7dwUncfSrUW3c126B8pwhqdkuCnd5Lro3JRXP/0WrUUXRs7W9cj5MyPRWpT4cFO6teh2borOY+nWotu5Lt0DZTjDUzLclG5yXXRuzauNa6pcjv05vw3M3pq5MTmZ+HBTurXodm6KzmPp1qLbuS7dA2U4w1My3JRucl10bs2rjWti7HoDT5Vre8p0uCndWnQ7N0XnsXRr0e1cl+6BMpzhKRluSje5Ljq35tXGNTd7p5Gnbtf0lOlwU7q16HZuis7jM8jWotu5Lt0DZTjDUzLclG5yXXRuzauNazFcaOCphXA+8eGmdGvR7dwUncfSrUW3c126B8pwhqdkuCnd5Lro3JpXG1d7LtfAU7mOjsSHm9KtRbdzU3QeS7cW3c516R4owxmekuGmdJPronNrXm1cW/P5hp7qTHy4Kd1adDs3RedvkEG1Ft3OdekeKMMZnpLhpnST66Jza15tXMX+vgae6t1X01Omw03p1qLbuSk6j6Vbi27nunQPlOEMT8lwU7rJddG5Na82rt09xXp/F1t+R+Hx7u7Eh5vSrUW3c1N0Hku3Ft3OdekeKMMZnpLhpnST66Jza15tXNm27MDRwboeeXJoKJutqQTT4aZ0a9Ht3BSdx9KtRbdzXboHynCGp2S4Kd3kuujcWtvJE8eSztBM+UKhulStTE/X8uKDA0cOHD6UkuGmdGvR7dwUncfSrUW3c126B8pwhqdkuCnd5Lro3JRvG1cmk9lT6l2urlSmpjZ+2cGBI08MPh0EQXqGm9KtRbdzU3QeS7cW3c516R4owxmekuGmdJPronM7Hm5cQRB07y3t7Oq6WakshuGDL8jvKAwdP37g8KEG7orpcFO6teh2borOY+nWotu5Lt0DZTjDUzLclG5yXXRuJ1i9P5F0BitRFN2YmCyPXZ+7fWchnG/PdTzW2Vns79vV0735bzw1HW5Ktxbdzk3ReSzdWnQ716V7oAxneEqGm9JNrovOm87njQsAAAAAksWeCgAAAABW2LgAAAAAwAobFwAAAABYYeMCAAAAACtsXAAAAABghY0LAAAAAKywcQEAAACAFTYuAAAAALDCxgUAAAAAVti4AAAAAMAKGxcAAAAAWNmSdABD0Vo0PTlRvjZ2b3Z2IQzbc7mt+Xyxv293TzHbxqqJ/4HpbdG9irrJdeleRYZ7NtwUyd3TTQ73+MLVdMHq/YmkM5gYv3L1wsjZuzMzD/6jbYXtA0cHS/v3uU+FdDK9LbpXUTe5Lt2ryHDPhpsiuXu6yeEeX7gstJ08cSzpDE0WRdHo8Olzw6cWwzD2BYthOPbiS9Wl6p5SbxAEjuMhVUxvi+5V1E2uS/cqMtyz4aZI7p5ucrjHFy47Hm5co8OnLz9/6aEvq0xPL1dXuveWHERCapneFt2rqJtcl+5VZLhnw02R3D3d5HCPL1x2fNu4xq9cPTd8qsYXV6amdnZ1bStst0yE9DK9LbpXUTe5Lt2ryHDPhpsiuXu6yeEeX7hMefUDatFadGHkbF2PnD8zEq1FRnmQZqa3Rfcq6ibXpXsVGe7ZcFMkd083OdzjC5c1rzauqXI59kfxNjB7a+bG5KRRHqSZ6W3RvYq6yXXpXkWGezbcFMnd000O9/jCZc2rjWti7HoDT5UbegrqTG+L7lXUTa5L9yoy3LPhpkjunm5yuMcXLmtebVxzs3caeep2I09Bnelt0b2Kusl16V5Fhns23BTJ3dNNDvf4wmXNq41rMVxo4KmFcL7pSZB+prdF9yrqJtelexUZ7tlwUyR3Tzc53OMLlzWvNq72XK6Bp3IdHU1PgvQzvS26V1E3uS7dq8hwz4abIrl7usnhHl+4rHm1cW3N5xt6qrPpSZB+prdF9yrqJtelexUZ7tlwUyR3Tzc53OMLlzWvNq5if18DT/Xua+QpqDO9LbpXUTe5Lt2ryHDPhpsiuXu6yeEeX7isebVx7e4p1vvr0vI7Co93dxvlQZqZ3hbdq6ibXJfuVWS4Z8NNkdw93eRwjy9c1rzauLJt2YGjg3U98uTQUDbrVQmokelt0b2Kusl16V5Fhns23BTJ3dNNDvf4wmWt7eSJY0lnaKZ8oVBdqlamp2t58cGBIwcOH7KOhNQyvS26V1E3uS7dq8hwz4abIrl7usnhHl+4TPm2cWUymT2l3uXqSmVqauOXHRw48sTg00EQuEmFdDK9LbpXUTe5Lt2ryHDPhpsiuXu6yeEeX7jseLhxBUHQvbe0s6vrZqWyGIYPviC/ozB0/PiBw4f8O07Uy/S26F5F3eS6dK8iwz0bbork7ukmh3t84bITrN6fSDqDlSiKbkxMlseuz92+sxDOt+c6HuvsLPb37erp9ux7Q7F5prdF9yrqJtelexUZ7tlwUyR3Tzc53OMLV9P5vHEBAAAAQLK8XSUBAAAAIHFsXAAAAABghY0LAAAAAKywcQEAAACAFTYuAAAAALDCxgUAAAAAVti4AAAAAMAKGxcAAAAAWGHjAgAAAAArbFwAAAAAYIWNCwAAAACsbEk6gKpoLZqenChfG7s3O7sQhu253NZ8vtjft7unmG3b7B5rOtyUbnK4x4fIPd3OGc7wVqDbOQfqGW5L0wWr9yeSzqBn/MrVCyNn787MPPiPthW2DxwdLO3fl87hpnSTwz0+RO7pds5whrcC3c45UM9wWyy0nTxxLOkMSqIoGh0+fW741GIYxr5gMQzHXnypulTdU+oNgiA9w03pJod7fIjc0+2c4QxvBbqdc6Ce4bbYYeOqz+jw6cvPX3royyrT08vVle69pfQMN6WbHO7xIXJPt3OGM7wV6HbOgXqG22KHjasO41eunhs+VeOLK1NTO7u6thW2p2G4Kd3kcI8PkXu6nTOc4XxCv0KqOudAPcNtMeXtD6g1XbQWXRg5W9cj58+MRGtR4sNN6SaHe3yI3NPtnOEM5xMaKyWdc6Ce4bZYY+Oq1VS5HPtzfhuYvTVzY3Iy8eGmdJPDPT5E7ul2znCG8wmNlZLOOVDPcFussXHVamLsegNPlWt7ynS4Kd3kcI8PkXu6nTOc4bUP16XbOQfqGW6LNTauWs3N3mnkqds1PWU63JRucrjHh8g93c4ZzvDah+vS7ZwD9Qy3xRobV60Ww4UGnloI5xMfbko3OdzjQ+SebucMZ3jtw3Xpds6BeobbYo2Nq1btuVwDT+U6OhIfbko3OdzjQ+SebucMZ3jtw3Xpds6BeobbYo2Nq1Zb8/mGnupMfLgp3eRwjw+Re7qdM5zhtQ/Xpds5B+oZbos1Nq5aFfv7Gniqd19NT5kON6WbHO7xIXJPt3OGM7z24bp0O+dAPcNtscbGVavdPcV6fxdbfkfh8e7uxIeb0k0O9/gQuafbOcMZzic0Vko650A9w22xxsZVq2xbduDoYF2PPDk0lM3W1LDpcFO6yeEeHyL3dDtnOMP5hMZKSeccqGe4LdbaTp44lnQGGflCobpUrUxP1/LigwNHDhw+lJLhpnSTwz0+RO7pds5whtc+XJdu5xyoZ7gtpti46rOn1LtcXalMTW38soMDR54YfDoIgvQMN6WbHO7xIXJPt3OGM7wV6HbOgXqG22KHjas+QRB07y3t7Oq6WakshuGDL8jvKAwdP37g8KEG7orpcFO6yeEeHyL3dDtnOMNbgW7nHKhnuC12gtX7E0lnkBRF0Y2JyfLY9bnbdxbC+fZcx2OdncX+vl093Zv/xlPT4aZ0k8M9PkTu6XbOcIa3At3OOVDPcFuajo0LAAAAAKx4u0oCAAAAQOLYuAAAAADAChsXAAAAAFhh4wIAAAAAK2xcAAAAAGCFjQsAAAAArLBxAQAAAIAVNi4AAAAAsMLGBQAAAABW2LgAAAAAwAobFwAAAABY2ZJ0AEPRWjQ9OVG+NnZvdnYhDNtzua35fLG/b3dPMdu22VXTdLgu3Vq4LZ6h81jc81i6yU1xW9zTrYXk7pFcS7B6fyLpDCbGr1y9MHL27szMg/9oW2H7wNHB0v596RyuS7cWbotn6DwW9zyWbnJT3Bb3dGshuXskl9N28sSxpDM0WRRFo8Onzw2fWgzD2BcshuHYiy9Vl6p7Sr1BEKRnuC7dWrgtnqHzWNzzWLrJTXFb3NOtheTukVyUhxvX6PDpy89feujLKtPTy9WV7r2l9AzXpVsLt8UzdB6Lex5LN7kpbot7urWQ3D2Si/Jt4xq/cvXc8KkaX1yZmtrZ1bWtsD0Nw3Xp1sJt8Qydx+Kex9JNborb4p5uLSR3j+S6vPoBtWgtujBytq5Hzp8ZidaixIfr0q2F2+IZOo/FPY+lm9wUt8U93VpI7h7JpXm1cU2Vy7E/ireB2VszNyYnEx+uS7cWbotn6DwW9zyWbnJT3Bb3dGshuXskl+bVxjUxdr2Bp8q1PWU6XJduLdwWz9B5LO55LN3kprgt7unWQnL3SC7Nq41rbvZOI0/drukp0+G6dGvhtniGzmNxz+MzyCY3xW1xT7cWkrtHcmlebVyL4UIDTy2E84kP16VbC7fFM3Qei3seSze5KW6Le7q1kNw9kkvzauNqz+UaeCrX0ZH4cF26tXBbPEPnsbjnsXSTm+K2uKdbC8ndI7k0rzaurfl8Q091Jj5cl24t3BbP0Hks7vkbZFBNborb4p5uLSR3j+TSvNq4iv19DTzVu6+mp0yH69KthdviGTqPxT2PpZvcFLfFPd1aSO4eyaV5tXHt7inW++vS8jsKj3d3Jz5cl24t3BbP0Hks7nks3eSmuC3u6dZCcvdILs2rjSvblh04OljXI08ODWWzNZVgOlyXbi3cFs/QeSzueSzd5Ka4Le7p1kJy90gure3kiWNJZ2imfKFQXapWpqdrefHBgSMHDh9KyXBdurVwWzxD57G457F0k5vitrinWwvJ3SO5Lt82rkwms6fUu1xdqUxNbfyygwNHnhh8OgiC9AzXpVsLt8UzdB6Lex5LN7kpbot7urWQ3D2Si/Jw4wqCoHtvaWdX181KZTEMH3xBfkdh6PjxA4cPNXCcpsN16dbCbfEMncfinsfSTW6K2+Kebi0kd4/kooLV+xNJZ7ASRdGNicny2PW523cWwvn2XMdjnZ3F/r5dPd2b/95Q0+G6dGvhtniGzmNxz2PpJjfFbXFPtxaSu0dyLT5vXAAAAACQLG9XSQAAAABIHBsXAAAAAFhh4wIAAAAAK2xcAAAAAGCFjQsAAAAArLBxAQAAAIAVNi4AAAAAsMLGBQAAAABW2LgAAAAAwAobFwAAAABYYeMCAAAAACtbkg6gKlqLpicnytfG7s3OLoRhey63NZ8v9vft7ilm2za7x5oON6Wb3JRuLSR3Tze5KWrxjO6fobrDdenWopvcVGvWEqzen0g6g57xK1cvjJy9OzPz4D/aVtg+cHSwtH9fOoeb0k1uSrcWkrunm9wUtXhG989Q3eG6dGvRTW6qZWtpO3niWNIZlERRNDp8+tzwqcUwjH3BYhiOvfhSdam6p9QbBEF6hpvSTW5KtxaSu6eb3BS1eEb3z1Dd4bp0a9FNbqrFa2Hjqs/o8OnLz1966Msq09PL1ZXuvaX0DDelm9yUbi0kd083uSlq8Yzun6G6w3Xp1qKb3FSL18LGVYfxK1fPDZ+q8cWVqamdXV3bCtvTMNyUbnJTurWQ3D3d5KaoxTO6f4bqDtelW4tuclPU4u0PqDVdtBZdGDlb1yPnz4xEa1Hiw03pJjelWwvJ3dNNbopaPKP7Z6jucF26tegmN0UtGTau2k2Vy7E/57eB2VszNyYnEx9uSje5Kd1aSO6ebnJT1OIZ3T9DdYfr0q1FN7kpasmwcdVuYux6A0+Va3vKdLgp3eSmdGshuXu6yU1Ri2d0/wzVHa5Ltxbd5KaoJcPGVbu52TuNPHW7pqdMh5vSTW5KtxaSu6eb3BS1eEb3z1Dd4bp0a9FNbopaMmxctVsMFxp4aiGcT3y4Kd3kpnRrIbl7uslNUYtndP8M1R2uS7cW3eSmqCXDxlW79lyugadyHR2JDzelm9yUbi0kd083uSlq8Yzun6G6w3Xp1qKb3BS1ZNi4arc1n2/oqc7Eh5vSTW5KtxaSu6eb3BS1eEb3z1Dd4bp0a9FNbopaMmxctSv29zXwVO++mp4yHW5KN7kp3VpI7p5uclPU4hndP0N1h+vSrUU3uSlqybBx1W53T7He38WW31F4vLs78eGmdJOb0q2F5O7pJjdFLZ7R/TNUd7gu3Vp0k5uilgwbV+2ybdmBo4N1PfLk0FA2W1PDpsNN6SY3pVsLyd3TTW6KWjyj+2eo7nBdurXoJjdFLZlMpu3kiWNJZ5CRLxSqS9XK9HQtLz44cOTA4UMpGW5KN7kp3VpI7p5uclPU4hndP0N1h+vSrUU3uSlqYeOqz55S73J1pTI1tfHLDg4ceWLw6SAI0jPclG5yU7q1kNw93eSmqMUzun+G6g7XpVuLbnJTLV4LG1d9giDo3lva2dV1s1JZDMMHX5DfURg6fvzA4UMN3BXT4aZ0k5vSrYXk7ukmN0UtntH9M1R3uC7dWnSTm2rxWoLV+xNJZ5AURdGNicny2PW523cWwvn2XMdjnZ3F/r5dPd2b/8ZT0+GmdJOb0q2F5O7pJjdFLZ7R/TNUd7gu3Vp0k5tqzVrYuAAAAADAirerJAAAAAAkjo0LAAAAAKywcQEAAACAFTYuAAAAALDCxgUAAAAAVti4AAAAAMAKGxcAAAAAWGHjAgAAAAArbFwAAAAAYIWNCwAAAACssHEBAAAAgJUtSQcwFK1F05MT5Wtj92ZnF8KwPZfbms8X+/t29xSzba27aprWwnD3w02R3P1wU7q16A43pVsLnTO8FYYjVmt2Hqzen0g6g4nxK1cvjJy9OzPz4D/aVtg+cHSwtH+f+1SJM62F4e6HmyK5++GmdGvRHW5KtxY6Z3grDEeslu287eSJY0lnaLIoikaHT58bPrUYhrEvWAzDsRdfqi5V95R6gyBwHC8pprUw3P1wUyR3P9yUbi26w03p1kLnDG+F4YjV4p17uHGNDp++/Pylh76sMj29XF3p3ltyECkNTGthuPvhpkjufrgp3Vp0h5vSrYXOGd4KwxGrxTv3beMav3L13PCpGl9cmZra2dW1rbDdMlEqmNbCcPfDTZHc/XBTurXoDjelWwudM7wVhiMWnXv1A2rRWnRh5Gxdj5w/MxKtRUZ5UsK0Foa7H26K5O6Hm9KtRXe4Kd1a6JzhrTAcseg849nGNVUux/4o3gZmb83cmJw0ypMSprUw3P1wUyR3P9yUbi26w03p1kLnDG+F4YhF5xnPNq6JsesNPFVu6N+05AAAACAASURBVCkhprUw3P1wUyR3P9yUbi26w03p1kLnDG+F4YhF5xnPNq652TuNPHW7kaeEmNbCcPfDTZHc/XBTurXoDjelWwudM7wVhiMWnWc827gWw4UGnloI55ueJFVMa2G4++GmSO5+uCndWnSHm9Kthc4Z3grDEYvOM55tXO25XANP5To6mp4kVUxrYbj74aZI7n64Kd1adIeb0q2FzhneCsMRi84znm1cW/P5hp7qbHqSVDGtheHuh5siufvhpnRr0R1uSrcWOmd4KwxHLDrPeLZxFfv7Gniqd18jTwkxrYXh7oebIrn74aZ0a9Edbkq3FjpneCsMRyw6z3i2ce3uKdb769LyOwqPd3cb5UkJ01oY7n64KZK7H25Ktxbd4aZ0a6FzhrfCcMSi84xnG1e2LTtwdLCuR54cGspmvSrhQaa1MNz9cFMkdz/clG4tusNN6dZC5wxvheGIReeZTKbt5IljSWdopnyhUF2qVqana3nxwYEjBw4fso6UBqa1MNz9cFMkdz/clG4tusNN6dZC5wxvheGIRee+bVyZTGZPqXe5ulKZmtr4ZQcHjjwx+HQQBG5SJc60Foa7H26K5O6Hm9KtRXe4Kd1a6JzhrTAcsVq8cw83riAIuveWdnZ13axUFsPwwRfkdxSGjh8/cPiQf8e5AdNaGO5+uCmSux9uSrcW3eGmdGuhc4a3wnDEavHOg9X7E0lnsBJF0Y2JyfLY9bnbdxbC+fZcx2OdncX+vl093Z59b2hdTGthuPvhpkjufrgp3Vp0h5vSrYXOGd4KwxGrNTv3eeMCAAAAgGR5u0oCAAAAQOLYuAAAAADAChsXAAAAAFhh4wIAAAAAK2xcAAAAAGCFjQsAAAAArLBxAQAAAIAVNi4AAAAAsMLGBQAAAABW2LgAAAAAwAobFwAAAABY2ZJ0AACbEq1F05MT5Wtj92ZnF8KwPZfbms8X+/t29xSzban+Vyokdz8cnuG2xNKtRTe5Lr6eu9eatQSr9yeSzgCgQeNXrl4YOXt3ZubBf7StsH3g6GBp/z73qWpBcvfD4RluSyzdWnST6+LruXstWwsbFyApiqLnTp25/PyljV/2nve977u/bzCbTdG/NCK5++HwDLcllm4tusl18fXcvRavpe3kiWNJZwBQt9Hh0w/9spXJZCrT08vVle69JQeRakRy98PhGW5LLN1adJPr4uu5ey1ei28bJNAKxq9creXL1pe9cPHiK9deNs1TO5K7Hw7PcFti6daim1wXX8/doxY2LkBMtBZdGDlb1yPnz4xEa5FRntqR3P1weIbbEku3Ft3kuvh67h61ZNi4ADlT5XLsj5xuYPbWzI3JSaM8tSO5++HwDLcllm4tusl18fXcPWrJsHEBcibGrjfwVLmhp5qL5O6HwzPclli6tegm18XXc/eoJcPGBciZm73TyFO3G3mquUjufjg8w22JpVuLbnJdfD13j1oybFyAnMVwoYGnFsL5piepF8ndD4dnuC2xdGvRTa6Lr+fuUUuGjQuQ057LNfBUrqOj6UnqRXL3w+EZbkss3Vp0k+vi67l71JJh4wLkbM3nG3qqs+lJ6s9ActfD4RluSyzdWnST6+LruXvUkmHjAuQU+/saeKp3XyNPNRfJ3Q+HZ7gtsXRr0U2ui6/n7lFLho0LkLO7p7itsL2uR/I7Co93dxvlqR3J3Q+HZ7gtsXRr0U2ui6/n7lFLho0LkJNtyw4cHazrkSeHhrLZ5D/sJHc/HJ7htsTSrUU3uS6+nrtHLZlMpu3kiWNJZwBQn3yhUF2qVqana3nxwYEjBw4fso5UI5K7Hw7PcFti6daim1wXX8/doxY2LkDSnlLvcnWlMjW18csODhx5YvDpIAjcpKoFyd0Ph2e4LbF0a9FNrouv5+61eC3B6v2JpDMAaNAr114+f2Zk9tbMg/8ov6Pw5NBQYz+u6gDJ3Q+HZ7gtsXRr0U2ui6/n7rVsLWxcgLYoim5MTJbHrs/dvrMQzrfnOh7r7Cz29+3q6U7590CT3P1weIbbEku3Ft3kuvh67l5r1sLGBQAAAABWvF0lAQAAACBxbFwAAAAAYIWNCwAAAACssHEBAAAAgBU2LgAAAACwsiXpAC1neXn57q1b92bvfmHu7r279+a/8IWFMFwMFxYXwtWVlcz6+tLiUtIZUZ9nnns26QgAAABIKTYucysrK39148ZnX536m0rl5l/99b07s+vrUdKhAAAAALjAxmUiWos+Oz01MfbJ6XL5ZqWy9qW1pBMBAAAASAAbVzOtrqxMfnL8+osvfXp8nG8OBAAAAMDG1QTr6+s3Jic/cfmjn7rycvU1Fi0AAAAAf4eNa1MWw/DPP/rRP/vjF+7OzCSdBQAAAEDqsHE16PN3777w/POf+Mjl5eXlpLMAVqK1aHpyonxt7N7s7EIYtudyW/P5Yn/f7p5itm2zv1vCdLgp3eS66Nw93c5J7h7JGY6NBav3J5LOIGb2b25d+v1nr3/8E1HEXzmITMbfvx1+/MrVCyNnY//77bbC9oGjg6X9+9I53JRucl107p5u5yR3j+QMx0OxcdXh83fvXvq9c1c/9jF2Lfx9/m1cURQ9d+rM5ecvbfyy97zvfd/9fYPZbH3/ust0uCnd5Lro3D3dzknuHskZjhq1nTxxLOkMApaXlz88ev6Dv/yfPveZz6yvrycdB+ny3qfen3SEJhsdPv3QL7iZTKYyPb1cXeneW0rPcFO6yXXRuXu6nZPcPZIzHDViPX2I9fX1K3/633/mh//Vpd/7/dWVlaTjAObGr1yt5Qvul71w8eIr115OyXBTusl10bl7up2T3D2SM7z24WDj2sjn7979tZ/7hdMf+NUvfuFvk84CuBCtRRdGztb1yPkzI9FaTd9nazrclG5yXXTunm7nJHeP5AxPyYGqYOOKt76+/rE/+MOf/9F/++r4p5LOArgzVS7X+6sOZm/N3JicTHy4Kd3kuujcPd3OSe4eyRmekgNVwcYVI/zi/G/84i/93n/+4HK1mnQWwKmJsesNPFWu7SnT4aZ0k+uic/d0Oye5eyRneO3DkeH3cT3o058cP/OrvzZ//4tJBwESMDd7p5Gnbtf0lOlwU7rJddG5e7qdk9w9kjO89uHIsHH9fevr6x+58KEP/c7vrq/zbaloUYvhQgNPLYTziQ83pZtcF527p9s5yd0jOcNrH44MG9frqq8tnf5Pv/6pq1eTDgIkqT2Xa+CpXEdH4sNN6SbXRefu6XZOcvdIzvDahyPDxvVl9//2C7/x8790s1JJOgiQsK35fENPdSY+3JRucl107p5u5yR3j+QMr304MvzNGZlMZuZzn/uPP/5TrFtAJpMp9vc18FTvvpqeMh1uSje5Ljp3T7dzkrtHcobXPhwZNq6//PSn/+NP/vQXPv/5pIMAqbC7p7itsL2uR/I7Co93dyc+3JRucl107p5u5yR3j+QMT8mBqmjpjevG5Kd//ed/sfraUtJBgLTItmUHjg7W9ciTQ0PZbE1fSUyHm9JNrovO3dPtnOTukZzhKTlQFW0nTxxLOkMyJq9/8jd+8d+vLC8nHQTy3vvU+5OO0Ez5QqG6VK1MT9fy4oMDRw4cPpSS4aZ0k+uic/d0Oye5eyRneO3D0aIb12de/Yvf/MV/v7KyknQQ+MCzjSuTyewp9S5XVypTUxu/7ODAkScGnw6CID3DTekm10Xn7ul2TnL3SM5w1ChYvT+RdAbX/urGX37gZ/5d9bXXkg4CTzzz3LNJRzDxyrWXz58Zmb018+A/yu8oPDk01NgP2joYbko3uS46d0+3c5K7R3KG46FabuO68ze3/u+f+j8WFxr5RW9ALF83rkwmE0XRjYnJ8tj1udt3FsL59lzHY52dxf6+XT3dm//ubdPhpnST66Jz93Q7J7l7JGc4NtZaG9fC/Pz/9ZP/+9ztO0kHgVc83rgAAACwSS20p66urPzmL/0H1i0AAAAAzrTQxvVf/9///Nm/eMjPAgIAAABAE7XKxvVnH/7IJy5/NOkUAAAAAFpLS2xcf/2Xn3n2g8NJpwAAAADQcvzfuJaXl4d/5QNfWl1NOggAAACAluP/xvXsfxm+OxPzKwUAAAAAwNqWpAPYeuXayx//kxeSTvEQ2Wz2bY9t/dqtWx959NE3P/LImx555C1f/dVJh/LHVLn813/5maRTAAAAoEX5vHG9trT0X3/zt5NOESMIsoV3vP0bi73f8I278jsKj3V2bvmqr0o6lLdGT42wcQEAACApPm9cF37n7P2//ULSKf5/W7Zs6e3/1r5/9O3f2Fts7+hIOg4AAAAAc95uXJ959S9e/PCfJJ3i7xTe8fX/6D3v2ffu/+mrc7mkswAAAABwx8+Na309enb41Pp6lHSQzM5v+Ibv/Gff/S3f9g+DIEg6CwAAAADX/Ny4rnzsv38u6R/defs7u54YfPqbSt+cbAx4L1qLpicnytfG7s3OLoRhey63NZ8v9vft7ilm2/z/y0hRF26LZ0wPlOHu6SbXReex+IQ2XbB6fyLpDE22vLz8s8d+JMGf4Hrk0bcc+eff8+7v+s5s1tt7I2T01MgLFy+avsUzzz1rOn8D41euXhg5G/v7D7YVtg8cHSzt3+c+FdKJ2+IZ0wNluHu6yXXReSw+oRbaTp44lnSGJrv8354fv3I1qXf/5n39P/zTP7Wn9M18G2FKvDr+SmVqyvQt3vvU+03nx4qiaHT49LnhU4thGPuCxTAce/Gl6lJ1T6mX29jiuC2eMT1Qhrunm1wXncfiE2rHt41ruVr94P/zyyvLy+7fOtuWfWLwe9//A9//6Fve4v7d8UZ83bhGh09ffv7SQ19WmZ5erq507y05iITU4rZ4xvRAGe6ebnJddB6LT6gd377t7fJ/uxR+cd79+37N2972b/7dz37Hdw/4t5QjhcavXK3ly9aXvXDx4ivXXjbNgzTjtnjG9EAZ7p5ucl10HotPqCmvNq7VlZWPXvoD9++7/e1v/4n/8Evv/KY97t8aLShaiy6MnK3rkfNnRqK15P/qTrjHbfGM6YEy3D3d5LroPBafUGtebVx//tGPLcy7/g9cX//4O//Nz/3MP3jbWx2/L1rWVLkc+yOnG5i9NXNjctIoD9KM2+IZ0wNluHu6yXXReSw+odb82bjW19cvX6r1v1c2y55v/uYf/bmf5fcaw6WJsesNPFVu6Cmo47Z4xvRAGe6ebnJddB6LT6g1fzauV8c/Nfs3t1y+49c//s5/+ZM//uY3v9nlmwJzs3caeep2I09BHbfFM6YHynD3dJProvNYfEKt+bNxvfSRP3H5dl+X3/ZDP/WTrFtwbzFcaOCphTCBv1EGieO2eMb0QBnunm5yXXQei0+oNU82rvn7X3zlZXd/q0l7R8ePnPzpjq/5B87eEXhde0PfxZrr6Gh6EqQft8UzpgfKcPd0k+ui81h8Qq15snFd+dOPrX1pzc17BUEw9K9++Ovy29y8HfAVtubzDT3V2fQkSD9ui2dMD5Th7ukm10XnsfiEWvNk43r5z1509l7/+J/+0+K39jl7O+ArFPsbuX69+7i0rYjb4hnTA2W4e7rJddF5LD6h1nzYuOZu37lZqbh5r7e/s+uJo9/r5r2AWLt7itsK2+t6JL+j8Hh3t1EepBm3xTOmB8pw93ST66LzWHxCrfmwcY19/BNu3iibzQ4e+6EtW7a4eTsgVrYtO3B0sK5HnhwaymZ9+LCjXtwWz5geKMPd002ui85j8Qm15sP/M69cu+bmjd71nd+x4xve4ea9gA2U9u97z/veV+OLDw4caew/6MMP3BbPmB4ow93TTa6LzmPxCTXVdvLEsaQzbMpiGI4On15fX7d+o6/O5f7Fj//Ym/jr4NW8Ov5KZWrK9C3e+9T7TefH2lPqXa6uPPT/tYMDR54YfDoIAjepkE7cFs+YHijD3dNNrovOY/EJtSO/cX3q6rVPfuLPHbzRP/u+oV09Xn1HaYvwdeMKgqB7b2lnV9fNSmUxDB98QX5HYej48QOHD/n3ZQv14rZ4xvRAGe6ebnJddB6LT6idYPX+RNIZNuXMrz7z5x/9qPW7dLz1a37uN379q970Jus3QtONnhp54eJF07d45rlnTedvLIqiGxOT5bHrc7fvLITz7bmOxzo7i/19u3q6PfseaGwet8UzpgfKcPd0k+ui81h8QptOfuM6+UPH783OWr/LwNGnv+O7B6zfBRa837gAAACQZtqr5Pz9LzpYtx59y1vefeg7rN8FAAAAgH+0N67P/MVfOHiXfQfe9cijb3HwRgAAAAA8o71xfe4zn3XwLvvf9S4H7wIAAADAP9ob162/+ivrt/i6/LZv+Mbd1u8CAAAAwEvaG9fMX3/O+i32vftdXv4llQAAAAAc2JJ0gMYtLS594d4963fp2bvX+i1q9NrS0o1Pf/rmZz5787OV2du3X1tcfG1xaXVlJelcTfPLv/s7b+YXTAMAAMAvwhvX3O3b1m/xpje96e2Pv9P6XTa2XK1+6uq16y99/NPjn/rS6mqyYUzx3xIBAADgH+GN6/N371q/xTu7v2nLlsQqWq5WP/7C5Q+PPjd//4tJZXApy8YFAAAA7whvXF+YM/+Wwl09PdZvEWt9ff1jf/BHl37/2cUwTCQAAAAAgKZQ3rjuzVm/xfav32n9Fg/6/Nzc7/zaM1PlCfdvnaxsti3pCAAAAECTCW9cC/bfa5ffvt36Lb7CK9dePvUrH6i+9prj900FvqkQAAAA3lHeuMIF0/nZtuzXPrbN9C2+wp9/9KO/88xvRmuRyzdND/7mjFYTrUXTkxPla2P3ZmcXwrA9l9uazxf7+3b3FLNt2r+4Ak3HbXHPtHPd4aZ0a2G4++GmqKXpgtX7qt+99os/9hM3P/tZu/lbOzt/9tc/YDf/K3x49LkPnf1dZ2+XQs8896zF2NFTIy9cvGgx+XVGyf02fuXqhZGzd2dmHvxH2wrbB44Olvbvc58K6cRtcc+0c93hpnRrYbj74aaoxULbyRPHks7QoI+c/9DS4qLd/M6dO779Pf/Ybv7f99JH/uTZD55y817pFATZ9z71P1tMfnX8lcrUlMXk1733qfebzvdMFEWjw6fPDZ96o78YZjEMx158qbpU3VPq5b98tjhui3umnesON6VbC8PdDzdFLXaUN64LHzL9eafOnTv2H3i33fzXvfqpVz74y7+yvr7u4L1SK5sNvuv9bFwtYXT49OXnLz30ZZXp6eXqSvfekoNISC1ui3umnesON6VbC8PdDzdFLXaEv13yS1/6kun8Rx55xHT+l83f/+LpD/xqy/7s1uuCrG//MgOxxq9creUL7pe9cPHiK9deNs2DNOO2uGfaue5wU7q1MNz9cFPUYkp541q13bje/OijpvO/bOTXfn3+b+87eKOUC/ibCltAtBZdGDlb1yPnz4zw7yNaE7fFPdPOdYeb0q2F4e6Hm6IWa8Ib13q0Zjp/y1eZ/0WO1z/+icnrn7R+Fw3efcMuHjRVLsf+sOwGZm/N3JicNMqDNOO2uGfaue5wU7q1MNz9cFPUYk1547L+wSfjHWDtS2v1bvwe8+9HJPGgibHrDTxVbugpqOO2uGfaue5wU7q1MNz9cFPUYk1441L3icuX783OJp0iLdi3WsHc7J1GnrrdyFNQx21xz7Rz3eGmdGthuPvhpqjFGhtXYi5f+oOkI6RIkOUq+m+xod9avhDONz0J0o/b4p5p57rDTenWwnD3w01RizX+Z24ypicn79z8m6RTpEgQcBX9157LNfBUrqOj6UmQftwW90w71x1uSrcWhrsfboparPE/c5Px8p+9lHSEdOE/cbWCrfl8Q091Nj0J0o/b4p5p57rDTenWwnD3w01RizX+d24C1tejV65dSzpFyvA3Z7SAYn9fA0/17mvkKajjtrhn2rnucFO6tTDc/XBT1GKNjSsBM5+7ye/g+gp8V2Er2N1T3FbYXtcj+R2Fx7u7jfIgzbgt7pl2rjvclG4tDHc/3BS1WON/5iagMjWddITU4W+HbwXZtuzA0cG6HnlyaCjLt5y2JG6Le6ad6w43pVsLw90PN0Ut1rz6f0bFrb/+XNIRUoeFq0WU9u97z/veV+OLDw4caexbEeAHbot7pp3rDjelWwvD3Q83RS2m2k6eOJZ0hgb90bnn1tbW7OZ//ePv7P3Wb7WY/Kd/8Idzd7z6JQOb98ijj/yTJ45YTH51/JXK1JTF5Ne996n3m873zJ5S73J15aGHcnDgyBODT/MfP1sct8U90851h5vSrYXh7oebohY7bFxvyG7j+uPzHwq/+EWLyboeectb/smRWv/lR13YuNImCILuvaWdXV03K5XFMHzwBfkdhaHjxw8cPuTfF1zUi9vinmnnusNN6dbCcPfDTVGLnWD1/kTSGRr0o9/z9MrKit38dx36jn/+L37QYvJP/8tjn5+bs5is62ve+rb/87/8lsXk0VMjL1y8aDH5dc8896zpfF9FUXRjYrI8dn3u9p2FcL491/FYZ2exv29XT7dn372NzeO2uGfaue5wU7q1MNz9cFPU0nTCG9e//p6nVy03rncf/s7v+cEfsJj8E//r94df9OoXaW/eW7/2bb/w22xcAAAA8I23q2SaRWtR0hEAAAAAuMDGBQAAAABW2LgAAAAAwAobFwAAAABYYeMCAAAAACtsXAAAAABghY0LAAAAAKywcQEAAACAFTYuAAAAALDCxpWA9cx60hEAAAAAuMDGBQAAAABWtiQdIL2CTJB0BODhorVoenKifG3s3uzsQhi253Jb8/lif9/unmK2LdX/SkU3uS7TzjlQ9zjQWNTinm4tJIcbwer9iaQzNOhff8/TqysrdvMPHD701A9+v8XkHxv6X5YWFi0m63rr177tF377tywmj54aeeHiRYvJr3vmuWdN529g/MrVCyNn787MPPiPthW2DxwdLO3f5z5VLXST6zLtnAN1jwONRS3u6dZCcjjTdvLEsaQzNOiPzj0Xra3ZzX/HrseL39pnMfmPz19YXVm1mKzr0bc8+p4j77OY/Or4K5WpKYvJr3vvU+83nR8riqLR4dPnhk8thmHsCxbDcOzFl6pL1T2l3iBI0X+w1U2uy7RzDtQ9DjQWtbinWwvJ4Rgb1xti43KJjateo8OnLz9/6aEvq0xPL1dXuveWHESqkW5yXaadc6DucaCxqMU93VpIDsf4Rk9Az/iVq7V8wf2yFy5efOXay6Z5aqebXJdp5xyoexxoLGpxT7cWksM9Ni5ATLQWXRg5W9cj58+MRGuRUZ7a6SbXZdo5B+oeBxqLWtzTrYXkSAQbFyBmqlyO/WHZDczemrkxOWmUp3a6yXWZds6BuseBxqIW93RrITkSwcaVhHV+AzIaNzF2vYGnyg091Vy6yXWZds6BuseBxqIW93RrITkSwcYFiJmbvdPIU7cbeaq5dJPrMu2cA3WPA43PQC3O6dZCciSCjQsQsxguNPDUQjjf9CT10k2uy7RzDtQ9DjQWtbinWwvJkQg2LkBMey7XwFO5jo6mJ6mXbnJdpp1zoO5xoLGoxT3dWkiORLBxAWK25vMNPdXZ9CT1Z1BNrsu0cw7UPQ70DTJQi2u6tZAciWDjemP8om6kUrG/kV/M3bvP5Nd510U3uS7TzjlQ9zjQWNTinm4tJEci2LgAMbt7itsK2+t6JL+j8Hh3t1Ge2ukm12XaOQfqHgcai1rc062F5EiE8Ma1zt+xjpaUbcsOHB2s65Enh4ay2eQ/7LrJdZl2zoG6x4HGohb3dGshORLBMQB6Svv3ved976vxxQcHjjT2rQgWdJPrMu2cA3WPA41FLe7p1kJyuNd28sSxpDM06A/PjUZRZDf/Hbt2Ffu+xWLyH5+/sLq6ajFZ16NvefQ9R2r9IlKXV8dfqUxNWUx+3Xufer/p/Fh7Sr3L1ZWH/r92cODIE4NPB2n6oUTd5LpMO+dA3eNAY1GLe7q1kByOsXG9IbuN68PPXfgSG9f/iI2rXkEQdO8t7ezqulmpLIbhgy/I7ygMHT9+4PChtH3B1U2uy7RzDtQ9DjQWtbinWwvJ4Viwen8i6QwN+pGnvtd0bznwXYef+oH/zWLyvx38vteWliwm63rr177tF377tywmj54aeeHiRYvJr3vmuWdN528siqIbE5Plsetzt+8shPPtuY7HOjuL/X27erpT/t3busl1mXbOgbrHgcaiFvd0ayE53GDjekNsXC6xcQEAAMBLLMEAAAAAYIWNCwAAAACssHEBAAAAgBU2LgAAAACwwsYFAAAAAFbYuN4Qv8YAAAAAwCaxcQEAAACAFeWNa3096QQNkg0OAAAAoD7KGxcAAAAApBsbFwAAAABYYeNKAH8nx4Oy2bakIwAAAADNtyXpAK2In+N60JsffTTpCIgRrUXTkxPla2P3ZmcXwrA9l9uazxf7+3b3FLNtm/33NabDTVELaseBxqIWpITuVSS5FjYupMKbH30k6Qj4SuNXrl4YOXt3ZuYr/u+Xn7+0rbB94Ohgaf++dA43RS2oHQcai1qQErpXkeRy2k6eOJZ0hgb94bOjURTZzX/H7l09fd9iMfnDz1340pdWLSbreuee3X3f/m0Wk18df6UyNWUx+XXvfer9pvPdi6JodPj0ueFTi2EY+4LFMBx78aXqUnVPqTeo89tkTYebohbUjgONRS1ICd2rSHJRbFxviI3Lpb3f9g+/sVi0mMzG1YDR4dOXn7/00JdVpqeXqyvde0vpGW6KWlA7DjQWtSAldK8iyUV5++2S0JIvFJKOgL8zfuVqLV8Tv+yFixdfufZySoabohbUjgONRS1ICd2rSHJdbFyJ4K/O+Eq7erqTjoBMJpOJ1qILI2freuT8mZForab/2mw63BS1oHYcaCxqQUroXkWSS2PjemOG30Hq2zenbtK2wvavedvbkk6BTCbz/7V379FR1ncex2cmF0jIBIjkxgQJkQRyIyEmCIpy+sFODAAAEvNJREFUky54gRwoaGuIcqm1gBd0bVnr0u5217McV/dsT3fds91zqFK2rWJFVm1PvRxbL3sUwlqSHEyQRkUuAetiJoEhl8n+obtu5Ul85jHf3zPfZ96vf5nf9/flM8+T8OV55hlfW3PzhZ9nHV7nseOHW1tdLy6KWGAfb6glYkGc0Hso0rlqTFyu4BrXn6i67DK3W8CnWpoOOFjVbG+VaHFRxAL7eEMtEQvihN5Dkc5VY+KC+2ZdNdftFvCp050nnaw6YWuVaHFRxAL7eEMtEQvihN5Dkc5VUzxxDSq+UsRdhZ8pLCmeePHFbneBT/WEux2s6g53uV5cFLHAPt5QS8SCOKH3UKRz1RRPXJrpnRVH3p+tqHe7BXwmIxh0sCqYmel6cVHEAvt4Qy0RC+KE3kORzlVj4oKbQpMnz6jz5peLK5Wdl+doVb7rxUURC+zjDbVELIgTeg9FOldN8cTl5948/VZtWCv+teKDXFGMQUVtjYNVlXW2VokWF0UssI831BKxIE7oPRTpXDXFE5fmz3HB5/P5Lpt/VUl5ufQuff29ovUDSYpPoguVlFfkhibGtCSvIDS1zNbXqYkWF0UssI831BKxIE7oPRTpXDVP/WMRimRNmLBq3ToDG50/d060fkpyimh9wwJJgfo1DTEtWdHYGAjY+kkiWlwUscA+3lBLxII4ofdQpHPVPPWXgRYpqakb7r0nPWOMgb0iZyOi9ZNTPDVx+Xy+qll1i66/3uaLF9cvi+luAdHioogF9vGGWiIWxAm9hyKd65W0betGt3tw6FdP7B6MCt5YWFhSXD5zpkTlXz/5y4H+fonKKvj9gbV331laNcPMdq+/8NKHnZ1y9dMzxly9zO4PES2mV1Wej/R2tLUN/7LF9cuWN9wU6yfxRIuLIhbYxxtqiVgQJ/QeinSuFBPXkOQmrt/8ck9/ok5cfn/gxm+sn71gnrEdX3j6P8IffyxXf/xFF81bukSuviv8fn9ZddWkoqKjHR094fCFL8grCDVu3jxv6RIHPxNFi4siFtjHG2qJWBAn9B6KdK6Uv+9Mi9s9OHT76hsH+gfk6i+49ppV69dKVN7y9TXnI7K3usWnQCBw08bb5ixcYGzHwcHBLV9r6O0VfHjG1NLSu//2r+XquysajR5uaW1uOnD6xMnucFdGMDMnP7+itqa4vOzL32AtWlwUscA+3lBLxII4ofdQpHNdmLiGJDdx3X1TY0T4cQ5xKHPc2HV331VSUWFy048+/PD+W78lukXVrFnf3Hqv6BYAAADQK9ntBuLXoF/qlsXBxPuGqNLqqsbNm8ZmjTe87+njJ6S3GJPp5JvUAQAAkCCYuCBrbNb4FTc31l0515Xdj733nvQWF2VnS28BAAAAvRRPXNJXivyDHvzcnkljs8Yvrl8+9yuLU1NT3eqhvaVVeousnBzpLQAAAKCX4okL8Sk1NbW0unr2wvkVNTVJyUkudhKNRt85dEh6lwk5XOMCAADAkBRPXJ58dqQufr8/bUx6Wlr6mMxgbiiUX1BQVDqtqKQkTr4U+Ni7757t7pHeJTs/X3oLAAAA6KV44tLrH/59p9stJITWA29JbxEcm5k5bqz0LgAAANBL8WPvE/CJf4jJvldeld4iNLlQegsAAACopnji4q5CDONoR8eJo0eld5l48STpLQAAAKCa4omLa1wYxpsvv2Jgl8JpJQZ2AQAAgF6KJy5gKL29vW/89rcGNipi4gIAAMCwmLiGxF2Ler32/AvdXV3Su2RNmJA1YYL0LgAAAFCNZxUOibsWlerv739xz14DG11SVmpgF3dFB6LtrS3N+5o+7OzsDoczgsHsvLyK2pqS8opAUuL+f41oLHoz1xsLxc2jc48VBzA8f9+ZFrd7cGjzqhuiA1G5+guuvWbV+rVy9SHk9Rdf+uk/PWJgo8Y7Ns2eP9/ARm5564039+zcder48Qv/KDc0sX5NQ9WsOvNduU40Fr2Z642F4ubRuceKA/hCSdu2bnS7B4eee2K36GWoomklZTOr5epDQuTcuR9vfygSOSe9kd/vv/EbG0anpUlv5IpoNPrkjkd37/hJTzhs+YKecLjp1dciZyPTqyoT5/5b0Vj0Zq43FoqbR+ceKw7AJiauIRUWF5fXzJSrDwlP7/r5od+Lf/Gxz+crmFK4uH6ZgY1c8eSOR1965tkvfFlHe/v5SG9ZdZWBluKBaCx6M9cbC8XNo3OPFQdgk+Y7d4U/ZsX/9Khz8ugHLz/3xb9XRkT1ZbPMbGTeW2+8aefX8yde3Lv34L79ov3ECdFY9GauNxaKm0fnHisOwD7NE5fwQMSTM3SJDkR3/vMjA/0DZrarufxyMxsZFh2I7tm5K6YlTz22U/QTlfFANBa9meuNheLm0bnHigOIieaJi2tc+H/2/uznHW3tZvYKTZ6cVxAys5dhbc3Nlh+tHkbnseOHW1uF+okTorHozVxvLBQ3j849VhxATDRPXAxE+F+Hfn/w+aeeNrbdpXOvMLaXYS1NBxysana0ShHRWPRmrjcWiptH5x4rDiAmmicuwOfz+Xx/PHXq0X/84eCgoRshAoHA7AXzzOxl3unOk05WnXCyShHRWPRmrjcWiptH5x4rDiAmmicuPmYFn6+nu/tHf/NA15mPje1YXjNzXFaWse0M6wl3O1jVHe4a8U7iimgsejPXGwvFzaNzjxUHEBPNExd3FSa8vt7ef3lge+cHx0xuevnVC01uZ1hGMOhgVTAzc8Q7iSuisejNXG8sFDePzj1WHEBMNE9cXONKbH29vf/29w8fefttk5tOyM2trK01uaNh2Xl5jlblj3gncUU0Fr2Z642F4ubRuceKA4iJ5olLGs8qjGPnI5FHHtjevL/J8L4Lr7s2EPDyWVNRW+NgVWWdk1WKiMaiN3O9sVDcPDr3WHEAMfHyvx2/LL6PK151nfn44e9ue/vgQcP7pmeMmbNogeFNDSspr8gNTYxpSV5BaGpZmVA/cUI0Fr2Z642F4ubRuceKA4gJE9fQuMYVl95/58iDW+872tFhfusF1147avRo8/uaFEgK1K9piGnJisZGb1/38wnHojdzvbFQ3Dw691hxADFJ2rZ1o9s9OPTc47sHJS9DTZlWUjazWq4+HHj1N8//+MGHesJh81unpaevu/uulNRU81sblhcKRc5GOtptfZ304vpl85YukW4pHojGojdzvbFQ3Dw691hxAPYxcQ1pSkkxE1f8OPPfHz32wx89//TeaNTQ9259ztKVKxLneJheVXk+0tvR1jb8yxbXL1vecJM/Ya4Gi8aiN3O9sVDcPDr3WHEANjFxDWlKCde44kI0Gv3dr379r9sf+uDdd93qIXPc2LVb7khOSXGrAcP8fn9ZddWkoqKjHR2WVxTzCkKNmzfPW7okoX49i8aiN3O9sVDcPDr3WHEANvn7zrS43YNDm796g+jljoXXX/fVtTfL1YcdbQebn/rprvffOeJuGw0bb7v86kXu9uCKaDR6uKW1uenA6RMnu8NdGcHMnPz8itqa4vKyRL7XXzQWvZnrjYXi5tG5x4oDGJ7iiWvTyhsGB5m4POvI228/87NftDW7f3wWTCnc+uB2fiEBAADAgWS3G3DO7+f57R7U0929/3evvP7Sy0f/8Ae3e/H5fD6/3796wzrGLQAAADijeOKCl4Q/7mprafmv1/+zeX9Tf1+f2+18Zs6ihVNLS93uAgAAAFoxccEd/X19p06cOPnBsY72d9qaDx57933Re0SdyRw/bkXjGre7AAAAgGJMXEM6cujQnp273O7CO8729PRGIpFz585HIn88ffqjU6fdes67fTdsWJ+eMcbtLgAAAKCY4olL+kNc771z5D23H5EHF81ZuGDmnNludwEAAADdeB4AYOGinJxV629xuwsAAACox8QFfF5ySsr6e7aMTkt3uxEAAACox8QFfN6qtbcUFk91uwsAAAB4ARMX8CfqrrryyiVfcbsLAAAAeAQTF/CZi6de8vVvfdPtLgAAAOAdqicu4YcVIsFk5eRsvO8vRo0a5XYjAAAA8A7FT4f3+fwMXRgp6WPSN313a+a4sW43ErPoQLS9taV5X9OHnZ3d4XBGMJidl1dRW1NSXhFIUv1fKvFLNHO9xQH7OBQtcfqbRyyWiGXE+fvOtLjdg0ObVq4elP5OLiSG1NTUzd+7f2ppqduNxOytN97cs3PXqePHL/yj3NDE+jUNVbPqzHflbaKZ6y0O2MehaInT3zxisUQsEpK2bd3odg8OPff4E263AC9ITk6+9Tv3Tp9R6XYjsYlGo0/ueHT3jp/0hMOWL+gJh5tefS1yNjK9qtLv9xtuz5NEM9dbHLCPQ9ESp795xGKJWOSonrh2c1chvqTklJQN995TWXup243E7Mkdj770zLNf+LKO9vbzkd6y6ioDLXmeaOZ6iwP2cSha4vQ3j1gsEYsc1fdiMm7hS0lNTb1t67dn1NW63UjM3nrjTTs/Ez/x4t69B/ftF+0nEYhmrrc4YB+HoiVOf/OIxRKxiFI9cXE1E86NTkvb+Jf3lc2sdruRmEUHont27oppyVOP7YwORIX6SQSimestDtjHoWiJ0988YrFELNJUT1xc44JDY7PGb/nB90vKy91uxIm25mbLz7MOo/PY8cOtrUL9JALRzPUWB+zjULTE6W8esVgiFmmqJy7AifxJk+79uwcmFRW53YhDLU0HHKxqdrQKnxDNXG9xwD4ORUuc/uYRiyVikab6+7iAmM2oq73lrttHp6W73YhzpztPOll1wskqfEI0c73FAfs4FC1x+ptHLJaIRRoTFxKF3+9fXL98ecPX/H7dl3Z7wt0OVnWHu0a8k8Qhmrne4oB9HIqWOP3NIxZLxCKNiQsJITg28+Y7btf4nIwLZQSDDlYFMzNHvJPEIZq53uKAfRyKljj9zSMWS8QijYkL3jd9xozGOzeNG5/ldiMjIzsvz9Gq/BHvJHGIZq63OGAfh6IlTn/ziMUSsUjTfXsVMLxRo0atXrfu9u/d75lxy+fzVdTWOFhVWedkFT4hmrne4oB9HIqWOP3NIxZLxCJN8cQ1OMjT4TGc4vKy+x5+cP51S/1+T311W0l5RW5oYkxL8gpCU8vKhPpJBKKZ6y0O2MehaInT3zxisUQs0hRPXB77ZzRG0LjxWTffeceWH/xVdr4Hr3cHkgL1axpiWrKisTEQUHyyu040c73FAfs4FC1x+ptHLJaIRVrStq0b3e7BoWd/8bjbLSDuJCUnzbtmya3f+fPCqVPd7kVQXigUORvpaG+38+LF9cvmLV0i3ZLniWautzhgH4eiJU5/84jFErGIUjxxPff4brdbQBwJBAKXzZ9/67fvqZs7Nzklxe12xE2vqjwf6e1oaxv+ZYvrly1vuIkLwiNCNHO9xQH7OBQtcfqbRyyWiEWOv+9Mi9s9OLRp5Wo+ygWfzxcIBC694vJrVq+K9RZkDzi4b/9Tj+3sPHb8wj/KKwitaGx09llYDEM0c73FAfs4FC1x+ptHLJaIRYLiiWvjilVutwCXJaekXHrFnCUrVybgrPV/otHo4ZbW5qYDp0+c7A53ZQQzc/LzK2prisvLuMFaiGjmeosD9nEoWuL0N49YLBHLiGPigko5EydecfWiOQvnZ/DtewAAAIhjfAMyNElLT6+aNWv2ovnFZWXcQAwAAID4x8QFBdIzxpTPnFlzxZyy6uqU1FS32wEAAADsYuJCnEpKTrr4kkumVZSX19RMmVbCfcMAAADQiIkL8cLvD2Tn5xUUTi4oLCwqnVZYXJzK5SwAAAAox8QFc9Izxvh8vtSUUenBjIxgMCMzmJk1/qLsCVk5uRNyc3JDIUYsAAAAeIziZxUCAAAAQJzjszEAAAAAIIWJCwAAAACkMHEBAAAAgBQmLgAAAACQwsQFAAAAAFKYuAAAAABAChMXAAAAAEhh4gIAAAAAKUxcAAAAACCFiQsAAAAApDBxAQAAAIAUJi4AAAAAkMLEBQAAAABSmLgAAAAAQAoTFwAAAABIYeICAAAAAClMXAAAAAAghYkLAAAAAKQwcQEAAACAFCYuAAAAAJDCxAUAAAAAUpi4AAAAAEAKExcAAAAASGHiAgAAAAApTFwAAAAAIIWJCwAAAACkMHEBAAAAgBQmLgAAAACQwsQFAAAAAFKYuAAAAABAChMXAAAAAEhh4gIAAAAAKUxcAAAAACCFiQsAAAAApDBxAQAAAIAUJi4AAAAAkMLEBQAAAABSmLgAAAAAQAoTFwAAAABIYeICAAAAAClMXAAAAAAghYkLAAAAAKQwcQEAAACAFCYuAAAAAJDCxAUAAAAAUpi4AAAAAEAKExcAAAAASGHiAgAAAAApTFwAAAAAIIWJCwAAAACkMHEBAAAAgBQmLgAAAACQwsQFAAAAAFKYuAAAAABAChMXAAAAAEhh4gIAAAAAKUxcAAAAACCFiQsAAAAApDBxAQAAAIAUJi4AAAAAkMLEBQAAAABS/gfMm3j7Nv0AGQAAAABJRU5ErkJggg==;" parent="1" vertex="1">
          <mxGeometry x="645" y="675" width="125" height="125" as="geometry" />
        </mxCell>
        <mxCell id="HQDI_JxLUjrjbNLDfQRk-10" value="&lt;font&gt;&lt;span style=&quot;font-size: 19px;&quot;&gt;&lt;b style=&quot;&quot;&gt;&lt;font style=&quot;color: light-dark(rgb(101, 66, 41), rgb(101, 66, 41));&quot;&gt;Technologies Used&lt;/font&gt;&lt;/b&gt;&lt;/span&gt;&lt;/font&gt;" style="text;html=1;align=center;verticalAlign=middle;whiteSpace=wrap;rounded=0;" parent="1" vertex="1">
          <mxGeometry x="410" y="526" width="180" height="50" as="geometry" />
        </mxCell>
        <mxCell id="HQDI_JxLUjrjbNLDfQRk-11" value="&lt;p style=&quot;&quot; data-end=&quot;1085&quot; data-start=&quot;967&quot;&gt;&lt;/p&gt;&lt;font style=&quot;color: light-dark(rgb(101, 66, 41), rgb(101, 66, 41)); font-size: 16px;&quot;&gt;&lt;div style=&quot;text-align: justify;&quot;&gt;&lt;ul style=&quot;&quot;&gt;&lt;li style=&quot;&quot;&gt;&lt;b style=&quot;&quot;&gt;C++&lt;/b&gt;&amp;nbsp;used to implement game rules, efficient logic, and system-level structure.&lt;/li&gt;&lt;li style=&quot;&quot;&gt;&lt;b&gt;SFML&lt;/b&gt; (Simple and Fast Multimedia Library) for graphics and window management.&lt;/li&gt;&lt;li style=&quot;&quot;&gt;&lt;b style=&quot;&quot;&gt;draw.io&lt;/b&gt; for planning layout, board design, and asset sketches.&lt;/li&gt;&lt;/ul&gt;&lt;/div&gt;&lt;/font&gt;&lt;p&gt;&lt;/p&gt;&lt;p data-end=&quot;1108&quot; data-start=&quot;1087&quot;&gt;&lt;/p&gt;" style="text;html=1;align=left;verticalAlign=middle;whiteSpace=wrap;rounded=0;" parent="1" vertex="1">
          <mxGeometry x="230" y="570" width="540" height="90" as="geometry" />
        </mxCell>
      </root>
    </mxGraphModel>
  </diagram>
</mxfile>
